<svg xmlns="http://www.w3.org/2000/svg"><defs><font id="haticons" horiz-adv-x="1024"><font-face units-per-em="1024" ascent="960" descent="-64"/><glyph horiz-adv-x="512"/><glyph unicode="" glyph-name="network" d="M270.029 618.752c10.24 0 20.173-1.485 29.491-4.403a807.621 807.621 0 0 0 116.89 107.52 100.045 100.045 0 0 0-2.765 23.296 99.045 99.045 0 0 0 5.222 31.795c-47.565 33.997-99.174 62.618-154.163 84.685-51.456-31.795-96.358-73.267-132.198-121.907a737.036 737.036 0 0 1 94.106-130.918c13.107 6.349 27.802 9.933 43.418 9.933zm-100.25-100.198c0 14.08 2.97 27.494 8.141 39.578-32.154 35.43-61.286 73.523-86.784 114.125-32-63.59-50.176-135.424-50.176-211.507 0-88.013 24.269-170.394 66.304-240.896 15.053 84.685 43.571 164.813 82.944 238.182-12.8 16.794-20.429 37.837-20.429 60.518zm344.064 326.809c26.47 0 50.432-10.291 68.403-27.085 52.275 22.477 107.315 39.782 164.608 50.79-69.171 39.885-149.35 62.771-234.854 62.771-58.317 0-114.125-10.701-165.683-30.106 40.909-20.224 79.923-43.776 116.582-70.4 14.95 8.909 32.307 14.029 50.944 14.029zM663.654 373.35c6.246 13.005 15.104 24.525 26.061 33.587-29.594 90.982-76.442 174.285-136.806 245.914-11.981-5.12-25.19-7.885-39.117-7.885-21.76 0-41.779 7.014-58.214 18.688-36.352-27.597-69.99-58.522-100.557-92.314 9.626-15.309 15.206-33.382 15.206-52.787 0-10.394-1.587-20.48-4.608-30.003 87.91-58.675 189.133-99.021 298.035-115.2zm129.997-135.321c1.331-18.995 2.099-38.093 2.099-57.395 0-33.997-2.15-67.482-6.246-100.403 79.872 58.317 140.698 141.21 171.366 237.517a788.027 788.027 0 0 0-111.667-18.688c-8.858-27.494-29.286-49.613-55.552-61.03zm-153.446 67.942c-116.326 19.302-224.102 63.693-317.952 127.181-15.258-9.318-33.126-14.797-52.275-14.797-7.117 0-13.926.717-20.582 2.099-44.902-85.094-73.626-180.07-81.869-280.781 44.851-48.128 99.533-86.886 161.024-112.896 76.39 117.402 183.091 214.477 311.654 279.194zm188.006 503.962c-75.52-7.322-147.61-26.317-214.682-54.682.307-3.379.512-6.707.512-10.086 0-15.821-3.789-30.72-10.291-43.981 67.123-78.797 119.142-170.496 152.013-270.899 40.806-.819 75.622-25.702 90.624-61.184 45.363 4.608 89.498 13.312 131.994 25.805 3.072 21.504 4.71 43.52 4.71 65.894-.051 138.445-59.75 262.963-154.88 349.133zM690.637 252.467C570.624 196.249 470.272 109.67 397.619 3.84 434.227-5.325 472.525-10.24 512-10.24c71.014 0 138.342 15.821 198.758 43.981 9.728 47.514 14.848 96.614 14.848 146.893 0 18.176-.819 36.198-2.202 54.016-12.083 3.891-23.194 9.882-32.768 17.818z"/><glyph unicode="" glyph-name="haticons" d="M32-64l89.6 1024h780.8L992-64H32zm732.8 332.8c0 76.8-32 147.2-83.2 195.2 54.4 48 89.6 118.4 89.6 198.4 0 32-6.4 60.8-16 89.6 19.2 9.6 32 32 32 54.4 0 35.2-28.8 64-64 64s-64-28.8-64-64c0-25.6 16-51.2 41.6-60.8 9.6-25.6 16-54.4 16-83.2 0-67.2-32-128-80-166.4-38.4 22.4-86.4 38.4-134.4 38.4s-92.8-12.8-131.2-35.2c-48 38.4-76.8 96-76.8 163.2 0 32 6.4 60.8 19.2 86.4 19.2 9.6 35.2 32 35.2 57.6 0 35.2-28.8 64-64 64s-64-28.8-64-64c0-25.6 16-48 35.2-57.6-9.6-28.8-12.8-57.6-12.8-89.6 0-76.8 32-147.2 83.2-195.2-54.4-48-89.6-118.4-89.6-198.4 0-32 6.4-60.8 16-89.6-19.2-9.6-32-32-32-54.4 0-35.2 28.8-64 64-64s64 28.8 64 64c0 25.6-16 51.2-41.6 60.8-9.6 25.6-16 54.4-16 83.2 0 67.2 32 128 80 166.4 38.4-22.4 86.4-38.4 134.4-38.4s92.8 12.8 131.2 35.2c48-38.4 76.8-96 76.8-163.2 0-32-6.4-60.8-19.2-86.4-19.2-9.6-35.2-32-35.2-57.6 0-35.2 28.8-64 64-64s64 28.8 64 64c0 25.6-16 48-35.2 57.6 9.6 28.8 12.8 57.6 12.8 89.6zM425.6 464c22.4 9.6 48 12.8 76.8 12.8s57.6-6.4 80-16c-22.4-9.6-48-12.8-76.8-12.8s-54.4 6.4-80 16z"/><glyph unicode="" glyph-name="play" d="M982.4 96S854.4 64 512 64 41.6 96 41.6 96 0 169.6 0 448s41.6 352 41.6 352 128 32 470.4 32 470.4-32 470.4-32 41.6-73.6 41.6-352-41.6-352-41.6-352zM384 640V256l320 192-320 192z"/><glyph unicode="" glyph-name="paypal" d="M892.8 332.8C809.6 208 630.4 224 601.6 224s-35.2-28.8-35.2-28.8-25.6-166.4-35.2-214.4c-9.6-48-38.4-38.4-38.4-38.4H358.4l64 400c467.2-38.4 499.2 320 499.2 320 57.6-70.4 51.2-204.8-28.8-329.6zM416 390.4s-44.8 3.2-54.4-44.8-44.8-294.4-44.8-294.4H121.6S89.6 44.8 96 96s131.2 812.8 131.2 812.8S224 960 278.4 960h326.4S880 979.2 880 755.2 758.4 374.4 416 390.4z"/><glyph unicode="" glyph-name="share" d="M838.4 656c-41.6 0-80 16-105.6 41.6l-361.6-208c3.2-12.8 6.4-25.6 6.4-38.4s-3.2-25.6-6.4-38.4L736 201.6c28.8 25.6 64 38.4 105.6 38.4 86.4 0 153.6-67.2 153.6-153.6S921.6-64 838.4-64 684.8 3.2 684.8 89.6c0 16 3.2 28.8 6.4 41.6L326.4 342.4c-28.8-25.6-64-41.6-105.6-41.6-86.4 0-153.6 67.2-153.6 153.6S137.6 608 220.8 608c41.6 0 80-16 105.6-41.6L688 768c-3.2 12.8-6.4 25.6-6.4 38.4 0 83.2 70.4 153.6 153.6 153.6S992 892.8 992 806.4 921.6 656 838.4 656z"/><glyph unicode="" glyph-name="launchpad" d="M672 323.2c3.2-217.6-169.6-374.4-169.6-374.4s-12.8-19.2-22.4-9.6c-9.6 9.6 0 25.6 0 25.6 51.2 169.6 0 259.2 0 259.2-83.2-32-112-28.8-112-28.8-35.2 76.8-112 115.2-112 115.2 9.6 70.4 32 105.6 32 105.6-67.2 44.8-233.6 22.4-256 9.6S3.2 416 3.2 416c-12.8 9.6 3.2 19.2 3.2 19.2 227.2 204.8 384 169.6 384 169.6C643.2 960 1024 953.6 1024 953.6c-19.2-406.4-352-630.4-352-630.4zm54.4 425.6c-54.4 0-96-41.6-96-96s41.6-96 96-96 96 41.6 96 96-44.8 96-96 96zM195.2 243.2s38.4 22.4 44.8 16c0 0 3.2-3.2-6.4-16s-28.8-60.8-32-99.2c0 0 54.4-6.4 99.2 22.4 0 0 16 12.8 22.4 9.6 3.2-3.2 0-19.2-9.6-35.2S249.6 41.6 92.8 32c0-3.2-12.8 121.6 102.4 211.2z"/><glyph unicode="" glyph-name="ubuntu" d="M576 694.4c-32 0-64-6.4-92.8-19.2L400 822.4c54.4 25.6 112 38.4 176 38.4 32 0 64-3.2 92.8-9.6 6.4-76.8 70.4-137.6 147.2-137.6 22.4 0 44.8 6.4 64 16 60.8-64 102.4-150.4 108.8-243.2H819.2c-16 118.4-118.4 208-243.2 208zm240 70.4c-54.4 0-99.2 44.8-99.2 99.2s44.8 99.2 99.2 99.2c54.4 0 99.2-44.8 99.2-99.2 0-57.6-44.8-99.2-99.2-99.2zM422.4 640c-57.6-44.8-92.8-115.2-92.8-192s35.2-147.2 92.8-192L336 108.8c-73.6 51.2-128 128-156.8 217.6 41.6 25.6 67.2 70.4 67.2 124.8 0 51.2-25.6 96-67.2 124.8C208 662.4 262.4 739.2 336 790.4L422.4 640zM99.2 348.8C44.8 348.8 0 393.6 0 448s44.8 99.2 99.2 99.2c54.4 0 99.2-44.8 99.2-99.2s-44.8-99.2-99.2-99.2zM576 198.4c124.8 0 230.4 92.8 246.4 214.4H992c-6.4-92.8-48-179.2-108.8-246.4-19.2 9.6-41.6 16-67.2 16-80 0-144-64-147.2-140.8C640 35.2 608 28.8 576 28.8c-64 0-121.6 12.8-176 38.4l83.2 147.2c28.8-9.6 60.8-16 92.8-16zm240-67.2c54.4 0 99.2-44.8 99.2-99.2S870.4-67.2 816-67.2c-54.4 0-99.2 44.8-99.2 99.2 3.2 57.6 44.8 99.2 99.2 99.2z"/><glyph unicode="" glyph-name="filezilla" d="M1024 12.8v-41.6c-19.2 0-35.2-16-35.2-35.2h-41.6c0 19.2-16 35.2-35.2 35.2s-35.2-16-35.2-35.2H832c0 19.2-16 35.2-35.2 35.2s-35.2-16-35.2-35.2H720c0 19.2-16 35.2-35.2 35.2s-35.2-16-35.2-35.2H608c0 19.2-16 35.2-35.2 35.2s-35.2-16-35.2-35.2H496c0 19.2-16 35.2-35.2 35.2s-35.2-16-35.2-35.2H384c0 19.2-16 35.2-35.2 35.2s-35.2-16-35.2-35.2h-51.2c0 19.2-16 35.2-35.2 35.2S192-44.8 192-64h-41.6c0 19.2-16 35.2-35.2 35.2S80-44.8 80-64H35.2c0 19.2-16 35.2-35.2 35.2v41.6c19.2 0 35.2 16 35.2 35.2S19.2 83.2 0 83.2V128h3.2c19.2 0 35.2 16 35.2 35.2s-16 35.2-35.2 35.2H0V240c19.2 0 35.2 16 35.2 35.2s-16 35.2-35.2 35.2V352c19.2 0 35.2 16 35.2 35.2s-16 35.2-35.2 35.2V464c19.2 0 35.2 16 35.2 35.2s-16 35.2-35.2 35.2V576c19.2 0 35.2 16 35.2 35.2C35.2 640 19.2 656 0 656v41.6c19.2 0 35.2 16 35.2 35.2S19.2 768 0 768v41.6c19.2 0 35.2 16 35.2 35.2S19.2 880 0 880v44.8c19.2 0 35.2 16 35.2 35.2h41.6c0-19.2 16-35.2 35.2-35.2s35.2 16 35.2 35.2H192c0-19.2 16-35.2 35.2-35.2s35.2 16 35.2 35.2H304c0-19.2 16-35.2 35.2-35.2s35.2 16 35.2 35.2H416c0-19.2 16-35.2 35.2-35.2s35.2 16 35.2 35.2H528c0-19.2 16-35.2 35.2-35.2s35.2 16 35.2 35.2H640c0-19.2 16-35.2 35.2-35.2s35.2 16 35.2 35.2H752c0-19.2 16-35.2 35.2-35.2 28.8 0 44.8 16 44.8 35.2h41.6c0-19.2 16-35.2 35.2-35.2s35.2 16 35.2 35.2h41.6c0-19.2 16-35.2 35.2-35.2v-41.6c-19.2 0-35.2-16-35.2-35.2s16-35.2 35.2-35.2V768c-19.2 0-35.2-16-35.2-35.2s16-35.2 35.2-35.2V656c-19.2 0-35.2-16-35.2-35.2s16-35.2 35.2-35.2V544c-19.2 0-35.2-16-35.2-35.2s16-35.2 35.2-35.2V432c-19.2 0-35.2-16-35.2-35.2s16-35.2 35.2-35.2V320c-19.2 0-35.2-16-35.2-35.2s16-35.2 35.2-35.2V208c-19.2 0-35.2-16-35.2-35.2s16-35.2 35.2-35.2V96c-19.2 0-35.2-16-35.2-35.2 3.2-32 19.2-48 38.4-48zM361.6 550.4l28.8 124.8h310.4l28.8 137.6h-448L140.8 144h134.4l64 288h320L380.8 156.8l54.4-89.6s38.4 28.8 121.6 16 147.2-25.6 256 22.4l25.6 121.6S694.4 169.6 608 192c0 0-19.2 3.2-25.6 3.2l272 265.6 22.4 89.6H361.6z"/><glyph unicode="" glyph-name="android" d="M931.2 243.2c-35.2 0-60.8 28.8-60.8 60.8v259.2c0 35.2 28.8 60.8 60.8 60.8 35.2 0 60.8-28.8 60.8-60.8V304c0-35.2-28.8-60.8-60.8-60.8zM742.4 128H704V0c0-35.2-28.8-60.8-60.8-60.8S582.4-32 582.4 0v128H476.8V0c0-35.2-28.8-60.8-60.8-60.8s-64 25.6-64 57.6v128h-38.4c-41.6 0-76.8 35.2-76.8 76.8V624h582.4V201.6c0-41.6-35.2-73.6-76.8-73.6zm-384 739.2l-28.8 41.6c-9.6 12.8-6.4 32 9.6 41.6 12.8 12.8 32 9.6 41.6-3.2l38.4-51.2c32 9.6 70.4 16 115.2 16 38.4 0 73.6-6.4 105.6-16l38.4 51.2c9.6 12.8 28.8 16 41.6 3.2 12.8-9.6 19.2-28.8 9.6-41.6l-28.8-41.6C816 803.2 819.2 672 819.2 672H236.8s6.4 128 121.6 195.2zm284.8-128c19.2 0 32 16 32 32 0 19.2-16 32-32 32s-32-16-32-32c-3.2-19.2 12.8-32 32-32zm-230.4 0c19.2 0 32 16 32 32 0 19.2-16 32-32 32s-32-16-32-32c0-19.2 12.8-32 32-32zm-288-496C89.6 243.2 64 272 64 304v259.2c0 35.2 28.8 60.8 60.8 60.8 35.2 0 60.8-28.8 60.8-60.8V304c3.2-35.2-25.6-60.8-60.8-60.8z"/><glyph unicode="" glyph-name="apple" d="M761.6 412.8c0-137.6 134.4-201.6 134.4-201.6S841.6 48 752-28.8c0 0-41.6-70.4-144-9.6S435.2-48 435.2-48s-86.4-51.2-144 28.8C233.6 60.8 128 192 128 403.2s150.4 384 355.2 278.4c0 0 25.6-22.4 76.8 0s192 96 307.2-67.2c0 0-105.6-64-105.6-201.6zM512 729.6S508.8 931.2 694.4 960c0 0 25.6-198.4-182.4-230.4z"/><glyph unicode="" glyph-name="blackberry" d="M956.8 496H745.6l28.8 172.8h163.2s86.4-6.4 86.4-86.4-67.2-86.4-67.2-86.4zM976 313.6c0-80-67.2-86.4-67.2-86.4H697.6L726.4 400h163.2s86.4-6.4 86.4-86.4zM620.8 627.2H409.6l32 172.8h163.2s86.4-6.4 86.4-86.4-70.4-86.4-70.4-86.4zm9.6-179.2c0-80-67.2-86.4-67.2-86.4H352l28.8 172.8H544s86.4-6.4 86.4-86.4zm-48-265.6c0-80-67.2-86.4-67.2-86.4h-208L336 268.8h163.2s83.2-9.6 83.2-86.4zM259.2 627.2H48L76.8 800H240s86.4-6.4 86.4-86.4-67.2-86.4-67.2-86.4zM278.4 448c0-80-67.2-86.4-67.2-86.4H0l28.8 172.8H192s86.4-6.4 86.4-86.4z"/><glyph unicode="" glyph-name="aws" d="M288.555 531.797c0-12.629 1.365-22.827 3.755-30.293 2.731-7.509 6.144-15.701 10.923-24.576 1.707-2.688 2.389-5.419 2.389-7.808 0-3.413-2.048-6.827-6.485-10.24l-21.461-14.293a16.202 16.202 0 0 0-8.841-3.071l-.034-.001c-3.413 0-6.827 1.707-10.197 4.779a105.53 105.53 0 0 0-11.989 15.566l-.256.434c-3.12 5.186-6.647 11.771-9.896 18.517l-.686 1.579c-26.539-31.317-59.947-46.976-100.139-46.976-28.587 0-51.413 8.149-68.096 24.491-16.683 16.384-25.173 38.144-25.173 65.408 0 28.928 10.197 52.48 30.976 70.144 20.779 17.707 48.341 26.581 83.413 26.581 11.605 0 23.509-1.024 36.096-2.731 12.629-1.707 25.6-4.437 39.168-7.509v24.875c0 25.899-5.419 43.947-16 54.485-10.88 10.581-29.269 15.659-55.467 15.659-11.947 0-24.235-1.323-36.821-4.395s-24.875-6.827-36.779-11.605c-3.219-1.499-7.18-3.007-11.256-4.255l-.691-.182c-1.601-.535-3.452-.887-5.371-.98l-.048-.002c-4.779 0-7.168 3.413-7.168 10.539v16.683c0 5.461.683 9.557 2.389 11.947a25.583 25.583 0 0 0 9.393 7.061l.164.064c11.904 6.144 26.197 11.264 42.88 15.36 15.371 4.098 33.019 6.452 51.216 6.452.685 0 1.368-.003 2.051-.01l-.105.001c40.533 0 70.144-9.216 89.216-27.605 18.731-18.347 28.245-46.293 28.245-83.755V531.799zM150.315 480c11.221 0 22.784 2.048 35.072 6.144 12.245 4.096 23.168 11.563 32.341 21.76 5.461 6.485 9.557 13.653 11.605 21.845 2.005 8.149 3.413 18.048 3.413 29.611v14.293c-8.452 2.192-19.091 4.225-29.921 5.648l-1.439.154c-9.595 1.287-20.702 2.031-31.979 2.048h-.021c-22.827 0-39.509-4.437-50.773-13.653-11.221-9.173-16.64-22.101-16.64-39.125 0-16 4.053-27.947 12.587-36.096 8.149-8.533 20.053-12.629 35.755-12.629zm273.493-36.779c-6.144 0-10.24 1.024-12.971 3.413-2.731 2.048-5.12 6.827-7.168 13.269l-80 263.296c-1.452 3.971-2.534 8.596-3.049 13.391l-.023.263c0 5.461 2.731 8.533 8.149 8.533h33.408c6.443 0 10.88-1.067 13.227-3.413 2.773-2.048 4.821-6.827 6.827-13.312l57.259-225.451 53.12 225.451c1.707 6.827 3.755 11.264 6.443 13.312 3.485 2.169 7.715 3.456 12.245 3.456.495 0 .987-.015 1.475-.046l-.067.003h27.221c6.485 0 10.923-1.067 13.653-3.413 2.688-2.048 5.12-6.827 6.443-13.312l53.803-228.181 58.923 228.181c2.048 6.827 4.437 11.264 6.827 13.312 3.367 2.168 7.479 3.456 11.892 3.456.485 0 .966-.016 1.443-.046l-.065.003h31.701c5.419 0 8.533-2.773 8.533-8.533 0-1.707-.384-3.413-.725-5.461-.606-3.259-1.433-6.122-2.503-8.864l.113.33-82.048-263.253c-2.048-6.827-4.437-11.221-7.168-13.269-3.322-2.16-7.386-3.445-11.75-3.445-.414 0-.826.012-1.235.034l.057-.003h-29.312c-6.443 0-10.88 1.024-13.653 3.413-2.688 2.389-5.077 6.827-6.4 13.653l-52.821 219.648-52.48-219.307c-1.707-6.827-3.712-11.264-6.4-13.653-2.773-2.389-7.552-3.413-13.653-3.413zm437.589-9.173c-17.707 0-35.413 2.048-52.437 6.101-17.024 4.096-30.293 8.533-39.168 13.653-5.461 3.029-9.173 6.443-10.539 9.515-1.274 2.811-2.026 6.094-2.048 9.549v17.373c0 7.125 2.731 10.539 7.808 10.539 2.048 0 4.096-.341 6.144-1.024s5.12-2.048 8.533-3.413c11.563-5.12 24.149-9.173 37.461-11.904 13.611-2.731 26.88-4.096 40.533-4.096 21.419 0 38.144 3.755 49.707 11.264 10.692 6.54 17.719 18.153 17.719 31.406 0 .329-.004.657-.013.983l.001-.048c.009.281.013.612.013.944 0 8.892-3.5 16.965-9.198 22.919l.012-.012c-6.144 6.443-17.749 12.245-34.432 17.707l-49.365 15.36c-24.875 7.808-43.264 19.371-54.485 34.688-10.567 13.499-16.976 30.696-17.067 49.387v.021c0 14.293 3.115 26.88 9.216 37.803 6.144 10.88 14.293 20.437 24.533 27.904 10.24 7.851 21.76 13.653 35.413 17.707 13.653 4.096 27.947 5.803 42.923 5.803 7.467 0 15.317-.341 22.827-1.365 7.808-1.024 14.933-2.389 22.101-3.755 6.827-1.707 13.312-3.413 19.413-5.419 6.144-2.048 10.923-4.096 14.336-6.144 4.103-2.094 7.526-4.972 10.188-8.462l.052-.072c1.918-2.853 3.061-6.366 3.061-10.146 0-.378-.011-.754-.034-1.126l.002.051v-16c0-7.168-2.731-10.923-7.851-10.923-4.817.566-9.191 2.016-13.109 4.188l.181-.092c-18.528 8.395-40.174 13.288-62.964 13.288-.844 0-1.687-.007-2.528-.02l.127.002c-19.413 0-34.773-3.029-45.312-9.515-10.581-6.485-16-16.341-16-30.293 0-9.557 3.413-17.749 10.24-24.192 6.784-6.485 19.371-12.971 37.419-18.773l48.384-15.275c24.491-7.851 42.24-18.773 52.779-32.725s15.659-29.952 15.659-47.659c0-14.635-3.072-27.947-8.832-39.509-6.144-11.605-14.336-21.803-24.875-29.995-10.581-8.533-23.168-14.635-37.803-19.072-15.36-4.736-31.317-7.125-48.725-7.125zm64.384-165.547c-112.043-82.773-274.859-126.677-414.805-126.677-196.181 0-372.907 72.533-506.453 193.109-10.539 9.515-1.024 22.485 11.605 14.976 144.384-83.755 322.517-134.528 506.752-134.528 124.331 0 260.864 25.899 386.56 79.019 18.731 8.533 34.731-12.245 16.341-25.899zm46.678 53.163c-14.336 18.347-94.72 8.832-131.157 4.395-10.88-1.365-12.587 8.192-2.688 15.36 64 44.928 169.259 32 181.504 17.024 12.245-15.36-3.413-120.576-63.36-170.965-9.173-7.851-18.048-3.755-13.952 6.443 13.653 33.707 43.947 109.653 29.653 127.744z"/><glyph unicode="" glyph-name="amd" d="M781.824 570.155l66.517-66.56h109.056V394.496l66.603-66.56v242.219zM85.333 553.813L0 342.186h55.851l15.787 41.899h94.763l17.408-41.899h57.088l-94.464 211.627zm179.584 0V342.4h52.821v131.925l57.088-66.645h8.021l57.088 66.389V342.186h52.821v211.627h-46.037l-67.925-78.72-67.883 78.72zm268.075 0V342.186h87.765c84.437 0 122.88 44.629 122.88 105.472 0 58.027-39.979 106.155-117.205 106.155zm52.779-38.826h33.792c49.92 0 69.547-30.336 69.547-66.987 0-31.061-15.872-67.072-68.949-67.072h-34.389zm-468.694-11.648l33.749-82.432H85.674zm731.179-13.099l-68.437-68.395v-96h95.829l68.437 68.565h-95.829z"/><glyph unicode="" glyph-name="angellist" d="M702.507 535.296c31.36 85.333 55.893 155.733 73.515 211.371 17.493 55.467 26.368 89.6 26.368 102.4 0 13.44-2.987 24.064-8.96 31.488-5.76 7.424-13.824 11.264-24.192 11.264-13.227 0-26.88-10.88-40.107-32.64-13.653-21.76-28.587-56.917-45.227-105.259l-70.4-203.093 88.32-15.53zm-93.568-189.227c-20.224 1.28-39.381 3.413-57.344 6.4-17.92 3.413-35.413 8.107-51.883 14.08 7.552-14.933 14.293-29.867 20.139-44.8 5.888-14.933 10.667-29.44 14.507-44.373 11.093 14.08 23.04 26.88 35.413 38.4a314.602 314.602 0 0 0 39.04 30.72zm-79.446 213.334L453.546 778.71c-19.797 55.893-34.987 92.16-45.867 109.653-10.667 17.067-22.4 25.6-35.072 25.6-9.813 0-17.792-3.413-23.893-11.093-6.144-7.68-9.131-17.493-9.131-29.867 0-21.333 8.107-58.88 24.32-112.64 16.213-53.333 40.96-123.307 73.813-210.347 2.56 5.12 6.827 8.96 11.947 11.093s11.947 3.413 20.907 3.413c2.56 0 8.107-.427 16.64-.427 8.107-.853 22.187-1.707 41.387-3.84zm-69.034-339.627c8.021 0 15.36 3.84 21.76 11.093 6.4 7.68 9.984 15.36 9.984 23.467 0 8.96-6.4 29.867-19.285 62.293-12.8 32.427-29.013 64.427-48.213 96-14.08 23.467-27.947 41.387-41.387 53.333-13.824 11.947-26.667 17.92-38.827 17.92-9.813 0-20.651-5.973-32.725-18.773-11.947-12.373-17.92-23.893-17.92-34.56 0-11.093 5.973-28.16 17.621-50.347 11.733-22.613 27.52-46.507 47.104-71.68 20.693-27.733 40.107-49.067 58.453-64.427 18.261-15.36 32.853-23.04 43.52-23.04h-.085zm-210.987 17.067c6.656-8.107 15.787-19.627 27.563-34.987 30.848-42.667 59.52-64 85.76-64 8.96 0 16.939 2.987 24.021 8.533 6.997 5.973 10.539 11.52 10.539 17.92 0 7.253-4.693 18.773-14.08 35.413-9.472 16.64-22.357 34.987-38.699 55.467-18.773 23.893-34.347 41.387-46.848 52.48-12.288 11.093-22.4 16.64-29.739 16.64-16.213 0-31.573-8.96-45.227-26.453-13.653-17.067-20.48-38.4-20.48-62.293 0-19.2 5.12-40.533 14.933-64.427 9.813-23.467 23.467-47.36 41.813-71.253 27.733-37.12 62.293-65.28 103.253-85.333 40.96-19.627 86.613-29.44 136.107-29.44 91.307 0 168.107 34.133 229.547 102.4 61.867 68.267 92.587 153.6 92.587 256.427 0 31.573-2.133 56.747-6.827 75.093s-12.373 32-23.04 40.533c-19.2 16.213-56.747 30.293-112.213 43.093s-113.493 19.2-174.08 19.2c-16.64 0-29.013-2.987-35.84-8.533s-10.24-15.36-10.24-28.715c0-32 17.92-55.04 53.76-69.376 35.84-14.507 93.44-21.76 173.227-21.76h28.843c6.4 0 11.947-2.56 15.787-7.424 3.84-4.693 6.4-11.947 7.68-22.187-8.107-7.253-24.32-15.787-49.237-25.6-25.173-9.387-43.947-19.2-57.173-28.373-28.16-20.651-50.773-45.227-67.84-73.557-17.067-28.16-25.6-55.04-25.6-80.341 0-15.36 3.669-34.133 11.008-55.893 7.253-21.76 11.093-35.115 11.093-40.533v-4.693l-1.28-6.4c-20.48 1.28-36.693 13.355-48.64 36.267-12.245 22.613-17.92 52.907-17.92 90.88v6.4c-3.84-3.2-7.509-5.76-11.093-7.04-3.669-1.451-7.595-2.133-11.52-2.133-4.267 0-8.448.256-12.373.853-3.84.683-7.68 1.707-12.373 3.2 1.28-5.12 2.432-10.24 3.243-15.061.427-5.12.853-8.96.853-11.52 0-17.323-6.827-32.427-20.48-44.8-13.653-12.245-29.867-18.347-48.64-18.347-29.44 0-59.605 14.507-90.027 43.093-30.507 28.757-45.653 57.173-45.653 84.693 0 5.12.64 9.813 1.707 13.781s3.2 7.253 5.973 10.24zm503.765 287.146c42.027-7.68 71.893-25.6 89.173-53.333 17.493-27.307 26.027-70.827 26.027-130.56 0-118.187-35.328-214.613-106.325-289.707C690.987-24.704 600.107-62.678 489.6-62.678c-43.648 0-86.016 8.107-126.976 23.893-41.387 15.787-76.373 37.973-106.24 65.707-33.707 31.147-59.307 63.573-75.947 98.133-17.067 34.56-25.6 69.973-25.6 105.813 0 40.533 8.533 71.68 25.6 93.44 17.067 22.187 44.8 37.12 82.347 45.227-7.253 16.64-12.373 30.293-15.36 41.813-3.413 11.52-5.12 20.053-5.12 26.027 0 21.333 11.093 43.093 33.28 64.853 22.187 22.187 43.093 33.28 62.72 33.28 8.107 0 17.067-1.28 26.453-4.693 9.387-2.987 20.053-8.107 32-14.933-34.56 100.267-61.013 179.2-77.227 234.667-16.64 55.893-24.747 93.867-24.747 115.2 0 29.013 7.253 52.48 22.187 69.547 15.36 17.067 35.84 25.6 61.44 25.6 43.947 0 99.84-98.56 167.68-295.381 11.947-33.707 20.48-59.733 26.88-78.08l21.76 61.995c67.84 194.133 125.867 291.413 174.933 291.413 23.893 0 43.093-8.107 57.173-24.32 14.08-16.341 21.333-37.845 21.333-64.981 0-20.48-8.107-58.027-23.893-113.067-15.659-54.613-39.253-126.293-71.253-215.04z"/><glyph unicode="" glyph-name="applemusic" d="M1023.872 698.709c0 31.488-2.773 62.72-10.24 93.44-13.525 55.893-45.312 98.56-93.013 129.835-24.491 15.957-51.371 25.856-80.085 31.019-22.059 3.968-44.288 5.76-66.731 6.4-1.707.128-3.541.427-5.291.555H255.488c-6.485-.427-12.928-.725-19.413-1.109-31.872-1.835-63.573-5.248-93.568-17.109-57.003-22.613-98.133-61.952-122.24-118.613-8.192-19.115-12.459-39.467-15.488-60.075-2.389-16.725-3.755-33.493-4.267-50.347 0-1.365-.299-2.645-.427-3.968V187.222c.427-5.973.725-12.075 1.152-18.091C3.37 134.358 7.808 99.84 22.442 67.883 50.175 7.296 96.597-32.512 160.426-51.669c17.92-5.419 36.523-7.979 55.168-9.728 23.68-2.261 47.36-2.56 71.125-2.56h470.613c22.4 0 44.715 1.451 66.987 4.267 35.115 4.523 68.139 14.933 97.963 34.56 35.84 23.595 62.805 54.912 80.213 94.208 7.936 17.92 12.501 37.12 15.787 56.491 4.821 28.8 5.888 57.941 5.845 87.04-.085 162.133 0 324.053-.128 486.101zm-274.048-170.24V284.757c0-17.792-2.475-35.285-10.411-51.456-12.373-25.173-32.427-41.045-59.221-48.64-14.933-4.267-30.123-6.699-45.653-7.381-40.533-1.92-75.648 25.6-82.901 65.536-6.059 32.981 9.685 69.291 44.288 86.272 13.781 6.827 28.587 10.667 43.435 13.824 16.128 3.499 32.341 6.528 48.384 10.24 11.691 2.688 19.499 9.813 21.76 22.016.597 2.688.853 5.547.853 8.235 0 77.44 0 154.88-.085 232.235 0 2.645-.427 5.333-1.109 7.893-1.707 6.4-6.4 10.368-12.971 9.984-6.827-.427-13.568-1.493-20.267-2.816-32.427-6.4-64.853-12.928-97.28-19.456l-157.867-31.915c-.683-.128-1.365-.427-2.048-.555-11.819-3.285-16.085-8.661-16.64-20.907-.085-1.792 0-3.669 0-5.547-.085-111.019 0-222.037-.128-333.013 0-17.92-2.005-35.669-9.173-52.352-11.861-27.307-32.853-44.373-61.184-52.608-14.933-4.267-30.293-6.827-45.867-7.339-40.96-1.536-74.88 25.6-81.92 65.877-5.973 34.645 9.813 71.893 49.237 88.533 15.232 6.4 31.147 9.899 47.275 13.227 12.245 2.56 24.533 4.949 36.693 7.552 16.341 3.541 24.875 13.781 25.6 30.464v6.4c0 126.293 0 252.672.085 378.965 0 5.248.555 10.667 1.792 15.787 2.987 12.16 11.648 19.115 23.296 22.101 10.88 2.816 21.973 4.779 33.024 7.04 31.275 6.4 62.549 12.629 93.867 18.944l96.853 19.627c28.587 5.717 57.173 11.52 85.76 17.195 9.387 1.835 18.901 3.755 28.331 4.523 13.227 1.067 22.315-7.253 23.637-20.565a87.77 87.77 0 0 0 .512-9.515c.085-81.493.085-163.072 0-244.565z"/><glyph unicode="" glyph-name="applepay" d="M187.221 606.549c-12.032-14.379-31.232-25.685-50.432-24.064-2.389 19.413 6.997 40.021 18.005 52.779 12.032 14.763 33.024 25.216 50.005 26.069 2.005-20.224-5.803-40.021-17.579-54.784zm17.366-27.904c-27.776 1.621-51.627-16-64.768-16-13.44 0-33.621 15.189-55.637 14.763-28.587-.427-55.168-16.768-69.76-42.88-30.037-52.139-7.808-129.408 21.163-171.861 14.208-21.035 31.232-44.075 53.632-43.264 21.163.811 29.568 13.952 55.168 13.952 25.813 0 33.195-13.952 55.637-13.568 23.168.427 37.76 21.035 51.968 42.069 16.213 23.893 22.827 47.104 23.211 48.341-.427.427-44.8 17.579-45.227 69.333-.384 43.307 34.987 63.915 36.608 65.109-19.968 29.952-51.2 33.195-61.995 34.005zm160.64 58.624V322.005h48.427v107.776h66.987c61.184 0 104.192 42.496 104.192 103.936 0 61.483-42.197 103.552-102.571 103.552H365.185zm48.426-41.258h55.808c41.984 0 65.963-22.613 65.963-62.464s-23.979-62.72-66.176-62.72h-55.637v125.227zm259.584-276.395c30.421 0 58.624 15.531 71.424 40.235h.981v-37.845h44.8v156.928c0 45.483-36.011 74.837-91.392 74.837-51.413 0-89.387-29.739-90.795-70.571h43.605c3.584 19.413 21.376 32.128 45.781 32.128 29.611 0 46.208-13.952 46.208-39.637v-17.365l-60.416-3.669c-56.192-3.413-86.613-26.667-86.613-67.115 0-40.832 31.403-67.925 76.416-67.925zm13.014 37.376c-25.813 0-42.24 12.544-42.24 31.744 0 19.84 15.829 31.36 46.037 33.195l53.76 3.413v-17.792c0-29.525-24.747-50.56-57.6-50.56zm164.01-120.747c47.189 0 69.376 18.219 88.747 73.429L1024 550.741h-49.195l-57.003-186.24h-.981l-57.003 186.24h-50.603l81.963-229.547-4.395-13.952c-7.381-23.637-19.371-32.725-40.789-32.725-3.797 0-11.179.427-14.208.811v-37.845c2.816-.811 14.805-1.195 18.432-1.195z"/><glyph unicode="" glyph-name="archlinux" d="M485.983 934.183c-43.289-106.095-69.374-175.505-117.551-278.465 29.556-31.347 65.829-67.806 124.716-108.968-63.328 26.048-106.505 52.208-138.785 79.338C292.714 497.416 196.061 314.111-.007-38.169 154.115 50.797 273.57 105.616 384.889 126.589a282.007 282.007 0 0 0-7.314 66.015l.149 4.926c2.463 98.743 53.812 174.685 114.64 169.497 60.828-5.113 108.11-89.413 105.721-188.119-.448-18.584-2.575-36.46-6.232-53.029 110.125-21.532 228.348-76.24 380.343-164.012-29.966 55.156-56.723 104.9-82.286 152.294-40.266 31.198-82.211 71.799-167.818 115.76 58.85-15.3 100.982-32.914 133.822-52.655-259.844 483.601-280.816 547.9-369.931 756.917zm490.99-885.551V75.24h-9.964v3.583h23.958V75.24h-10.001V48.632h-3.993zm18.137 0v30.19h6.045l7.128-21.383c.672-2.015 1.157-3.508 1.455-4.515a95.22 95.22 0 0 0 1.642 4.851l7.202 21.047h5.411v-30.19h-3.881v25.301l-8.807-25.301h-3.583l-8.732 25.712V48.632h-3.881z"/><glyph unicode="" glyph-name="blob" d="M752 694.4C748.8 832 672 944 566.4 876.8c-38.4-25.6-57.6-70.4-92.8-96-35.2-22.4-76.8-25.6-115.2-25.6-80 0-172.8 35.2-195.2-73.6-16-73.6 76.8-121.6 54.4-195.2-6.4-22.4-28.8-38.4-48-54.4-44.8-35.2-80-64-112-115.2-64-92.8-67.2-137.6-44.8-195.2 22.4-64 112-121.6 185.6-92.8 89.6 35.2 80 112 179.2 150.4 83.2 32 108.8-38.4 140.8-96C576-25.6 691.2-22.4 771.2 73.6c25.6 32 67.2 99.2 60.8 144-6.4 35.2-54.4 57.6-76.8 83.2C675.2 387.2 809.6 416 880 448c67.2 28.8 176 92.8 140.8 204.8-12.8 38.4-99.2 73.6-131.2 60.8-54.4-22.4-134.4-73.6-137.6-19.2z"/><glyph unicode="" glyph-name="blog" d="M649.6-64H339.2C342.4-64 0-64 0 278.4v342.4S-3.2 960 374.4 960H480s297.6 28.8 352-310.4c0 0 3.2-73.6 64-73.6h73.6s54.4-9.6 54.4-64V256s3.2-320-374.4-320zM512 704H320c-35.2 0-64-28.8-64-64s28.8-64 64-64h192c35.2 0 64 28.8 64 64s-28.8 64-64 64zm192-384H320c-35.2 0-64-28.8-64-64s28.8-64 64-64h384c35.2 0 64 28.8 64 64s-28.8 64-64 64z"/><glyph unicode="" glyph-name="cat-paw" d="M816 707.2C784 598.4 704 524.8 636.8 544s-99.2 124.8-67.2 233.6 112 182.4 179.2 163.2c67.2-22.4 96-124.8 67.2-233.6zM336 960c-70.4-12.8-112-112-96-224 19.2-112 89.6-192 160-182.4s112 112 92.8 224c-16 112-86.4 192-156.8 182.4zM67.2 649.6C3.2 624-19.2 524.8 19.2 432c38.4-96 121.6-150.4 185.6-124.8s86.4 124.8 48 217.6c-35.2 96-118.4 153.6-185.6 124.8zM960 582.4c-64 28.8-150.4-25.6-188.8-121.6C729.6 368 752 268.8 816 240s150.4 25.6 188.8 121.6c38.4 92.8 19.2 192-44.8 220.8zM806.4-6.4c80 83.2-137.6 432-294.4 438.4C345.6 441.6 92.8 67.2 179.2-19.2S425.6-32 512-19.2 684.8-134.4 806.4-6.4z"/><glyph unicode="" glyph-name="chrome" d="M515.2-64l211.2 348.8c32 44.8 54.4 99.2 54.4 156.8 0 80-35.2 150.4-89.6 198.4h297.6c25.6-60.8 38.4-124.8 38.4-192-3.2-281.6-230.4-512-512-512zM512 704c-118.4-3.2-217.6-83.2-246.4-192L112 768c96 118.4 240 192 400 192 188.8 0 355.2-102.4 444.8-256H512zM320 448c0 105.6 86.4 192 192 192s192-86.4 192-192-86.4-192-192-192-192 86.4-192 192zm-38.4-115.2c41.6-89.6 131.2-150.4 236.8-150.4 22.4 0 41.6 3.2 60.8 6.4l-144-246.4C188.8-22.4 0 192 0 448c0 89.6 22.4 176 64 249.6l217.6-364.8z"/><glyph unicode="" glyph-name="coop" d="M928 288l-96 96V-32H576v192H448V-32H192v416l-96-96-96 96 512 512 512-512-96-96zM512 608c-35.2 0-64-28.8-64-64s28.8-64 64-64 64 28.8 64 64-28.8 64-64 64z"/><glyph unicode="" glyph-name="credit-card" d="M928 64H96c-54.4 0-96 41.6-96 96v576c0 54.4 41.6 96 96 96h832c54.4 0 96-41.6 96-96V160c0-54.4-41.6-96-96-96zm32 662.4c0 22.4-19.2 41.6-41.6 41.6H105.6C83.2 768 64 748.8 64 726.4V640h896v86.4zm0-278.4H64V169.6c0-22.4 19.2-41.6 41.6-41.6h809.6c22.4 0 41.6 19.2 41.6 41.6V448zM384 320h64V192h-64v128zm-128 0h64V192h-64v128zm-128 0h64V192h-64v128z"/><glyph unicode="" glyph-name="doctor" d="M716.8 92.8c0 22.4 16 38.4 38.4 38.4s38.4-19.2 38.4-38.4-16-38.4-38.4-38.4c-19.2 0-38.4 19.2-38.4 38.4zM294.4-64c12.8 9.6 16 25.6 12.8 38.4-12.8 35.2-57.6 6.4-57.6 6.4-3.2 6.4-67.2 188.8 19.2 204.8C358.4 201.6 406.4 48 406.4 48c-48-28.8-44.8-35.2-32-60.8 12.8-22.4 28.8-12.8 64 6.4S457.6 48 457.6 48c-80 217.6-182.4 185.6-182.4 185.6 16 86.4 86.4 73.6 86.4 73.6 25.6 3.2 19.2 60.8 19.2 60.8-70.4 83.2-64 131.2-64 131.2-92.8 115.2-25.6 176-25.6 176-16 147.2 22.4 198.4 22.4 198.4 172.8 147.2 300.8 60.8 300.8 60.8 211.2 44.8 150.4-252.8 150.4-252.8C828.8 604.8 752 496 752 496c0-60.8-57.6-118.4-57.6-118.4-3.2-48 6.4-67.2 6.4-67.2 105.6-19.2 64-131.2 64-131.2h-6.4c-48 0-86.4-38.4-86.4-86.4s38.4-86.4 86.4-86.4 86.4 38.4 86.4 86.4c0 28.8-12.8 51.2-32 67.2v3.2c25.6 38.4 6.4 105.6 6.4 105.6s64-19.2 105.6-73.6c41.6-51.2 70.4-249.6 70.4-262.4H294.4zm396.8 588.8s51.2 35.2 44.8 86.4-38.4 57.6-38.4 19.2c0 0-3.2-16-19.2-19.2v112s-80 44.8-99.2 73.6c0 0-96-64-201.6-60.8V604.8s-28.8 12.8-25.6 38.4-35.2 9.6-32-32c3.2-41.6 38.4-73.6 38.4-73.6S352 448 435.2 384c0 0-70.4-163.2 92.8-265.6 0 0 144 83.2 118.4 211.2 0 0-102.4-67.2-169.6 32 0 3.2 150.4-70.4 214.4 163.2zM201.6-38.4C208-48 217.6-57.6 224-64H64c22.4 316.8 169.6 336 169.6 336l-6.4-60.8c-44.8 0-76.8-172.8-25.6-249.6z"/><glyph unicode="" glyph-name="dog-paw" d="M835.2 384s-140.8 19.2-80 137.6c0 0 25.6 51.2 35.2 83.2 0 0 12.8 86.4 73.6 73.6h3.2c3.2 19.2 3.2 38.4-9.6 57.6 0 0 3.2 44.8 16 22.4 0 0 38.4-57.6 38.4-105.6 16-19.2 32-44.8 38.4-89.6 6.4-6.4 38.4-169.6-115.2-179.2zm51.2-214.4s16-70.4-57.6-124.8c0 0-70.4-41.6-163.2-70.4l-32-9.6C544-60.8 460.8-64 460.8-64 371.2-54.4 345.6 9.6 345.6 9.6c-44.8 76.8 0 112 0 112 57.6 32 64 96 64 96-35.2 153.6 124.8 172.8 124.8 172.8l-3.2-3.2s144 70.4 195.2-76.8c0 0 35.2-51.2 102.4-44.8 0 0 54.4-6.4 57.6-96zM611.2 595.2S480 544 476.8 675.2c0 0 12.8 73.6-9.6 89.6 0 0-51.2 86.4 28.8 99.2 0 0 6.4 3.2 16 3.2-3.2 19.2-6.4 48-25.6 60.8 0 0-9.6 44.8 9.6 25.6 0 0 57.6-48 70.4-96 19.2-9.6 44.8-25.6 67.2-54.4 0 3.2 105.6-121.6-22.4-208zm-265.6-80C192 518.4 214.4 678.4 214.4 678.4c3.2 38.4 16 67.2 28.8 86.4-16 44.8 3.2 115.2 3.2 115.2 6.4 25.6 22.4-16 22.4-16-6.4-22.4 3.2-48 12.8-64 9.6 3.2 16 6.4 16 6.4 73.6 32 76.8-67.2 76.8-67.2C368 710.4 416 656 416 656c67.2-112-70.4-140.8-70.4-140.8zm-80-304c-134.4-73.6-192 80-192 80-12.8 28.8-16 54.4-16 76.8C32 409.6 32 480 32 480c0 28.8 25.6-9.6 25.6-9.6 0-16 6.4-32 16-44.8 6.4 9.6 12.8 16 12.8 16 44.8 44.8 99.2-22.4 99.2-22.4 25.6-22.4 73.6-51.2 73.6-51.2 115.2-64 6.4-156.8 6.4-156.8z"/><glyph unicode="" glyph-name="drive" d="M358.4 864h336l326.4-544H681.6L358.4 864zM172.8 12.8L0 300.8l326.4 544L499.2 560 172.8 12.8zM1024 288L851.2 0H204.8l172.8 288H1024z"/><glyph unicode="" glyph-name="dropbox" d="M512 768l224 192 288-192-224-192-288 192zm512-384L736 224 512 416l288 160 224-192zM288 224L0 384l224 192 288-160-224-192zM0 768l288 192 224-192-288-192L0 768zm512-438.4l214.4-182.4L864 224v-96L512-32 160 128v96l137.6-73.6L512 329.6z"/><glyph unicode="" glyph-name="artstation" d="M0 203.819L86.528 54.272c17.408-33.997 52.198-56.864 92.329-56.875h574.167L633.899 203.818H0zm1024-1.067c0 20.651-6.101 39.893-16.555 56.064L671.061 843.605c-17.732 32.966-51.986 54.997-91.386 54.997H401.877L921.514-1.707l81.92 141.867c16.128 27.179 20.565 39.211 20.565 62.592zM549.163 350.464L316.928 752.725 84.651 350.464h464.512z"/><glyph unicode="" glyph-name="asana" d="M801.28 420.139c-122.965 0-222.72-99.669-222.72-222.72s99.755-222.72 222.72-222.72S1024 74.539 1024 197.419s-99.669 222.72-222.72 222.72zm-578.56 0C99.84 420.139 0 320.427 0 197.419s99.755-222.72 222.72-222.72 222.72 99.755 222.72 222.72-99.669 222.72-222.72 222.72zm512 278.4c0-123.008-99.712-222.72-222.72-222.72-122.965 0-222.72 99.712-222.72 222.72 0 122.88 99.755 222.72 222.72 222.72 123.008 0 222.72-99.84 222.72-222.72z"/><glyph unicode="" glyph-name="at-and-t" d="M197.675 45.696C283.213-21.249 392.33-61.653 510.883-61.653h.143-.007c129.109 0 246.827 47.915 336.64 126.635 1.109.939.597 1.579-.469.939-40.32-26.88-155.221-85.675-336.171-85.675-157.227 0-256.597 35.072-312.704 66.389-1.067.555-1.451-.256-.64-.939zm348.032-26.112c125.781 0 263.979 34.304 346.624 102.144 22.613 18.517 44.16 43.093 63.445 76.16 11.093 19.029 21.973 41.643 30.805 63.872.427 1.067-.256 1.621-1.067.427-76.885-113.152-299.435-183.68-529.237-183.68-162.432 0-337.237 51.925-405.675 151.125-.683.896-1.323.512-.939-.512C113.407 93.611 306.815 19.627 545.706 19.627zM408.32 244.352c-261.547 0-384.853 121.813-407.253 204.971-.256 1.195-1.067.939-1.067-.171 0-27.947 2.816-64.085 7.637-88.064 2.261-11.648 11.776-29.952 25.685-44.587 63.36-66.005 221.269-158.507 494.72-158.507 372.565 0 457.771 124.117 475.136 164.949 12.459 29.184 18.901 81.92 18.901 126.208 0 10.752-.256 19.285-.683 27.733 0 1.365-.768 1.451-1.067.128-18.603-99.84-336.939-232.661-612.011-232.661zM49.28 668.331c-15.019-29.739-31.573-79.957-36.565-105.899-2.133-11.093-1.237-16.469 2.688-24.747C46.72 471.125 205.27 364.714 575.19 364.714c225.664 0 400.939 55.467 429.355 156.587 5.205 18.645 5.504 38.315-1.237 64.811-7.509 29.611-21.547 64.128-33.451 88.363-.427.811-1.067.683-.939-.256 4.395-132.693-365.611-218.197-552.32-218.197-202.24 0-370.944 80.555-370.944 182.315 0 9.771 2.048 19.541 4.565 29.696.256.939-.555 1.109-.939.299zm799.232 162.901c2.133-3.371 3.243-6.955 3.243-11.776 0-56.747-173.739-157.184-450.261-157.184-203.179 0-241.195 75.392-241.195 123.307 0 17.152 6.571 34.688 21.035 52.48.768 1.067.128 1.451-.811.683-26.501-22.556-50.076-47.025-71.069-73.626l-.824-1.083c-10.197-12.843-16.512-24.235-16.512-31.061 0-99.328 249.088-171.349 482.005-171.349 248.149 0 358.912 81.024 358.912 152.192 0 25.429-9.899 40.32-35.243 69.12-16.469 18.731-32 33.963-48.469 48.981-.811.64-1.365.128-.811-.683zm-76.075 56.747c-74.22 45.24-163.993 72.023-260.023 72.023l-1.472-.002h.076c-96.512 0-188.16-27.008-265.003-74.155-23.04-14.165-36.053-25.557-36.053-40.192 0-43.093 100.693-89.387 279.381-89.387 176.768 0 313.899 50.773 313.899 99.584 0 11.648-10.197 19.797-30.805 32.128z"/><glyph unicode="" glyph-name="atlassian" d="M823.893-62.165h-153.6a52.114 52.114 0 0 0-5.934-.329c-22.622 0-41.981 13.973-49.916 33.759l-.128.362C557.483 85.334 495.702 197.248 444.203 314.923c-38.125 80.265-60.387 174.406-60.387 273.746 0 127.289 36.551 246.042 99.73 346.334l-1.584-2.693c7.083 11.989 22.187 26.667 33.749 26.667s25.301-16 31.573-28.416Q779.561 465.921 1012.265.94c23.125-44.416 12.459-62.635-38.613-63.104zm-621.781 0H44.373C-.043-62.165-9.814-44.373 9.728-5.29q119.467 236.288 236.757 471.68c21.333 44.416 38.187 44.416 67.925 7.552 77.997-90.604 125.492-209.404 125.492-339.296 0-48.847-6.717-96.125-19.277-140.961l.878 3.671c-14.677-56.405-22.699-59.947-79.531-59.947z"/><glyph unicode="" glyph-name="atom" d="M874.496 574.891c-93.141 39.68-218.283 65.28-352 72.32-21.333 1.28-42.112 1.707-61.867 1.707 98.901 120.747 204.885 201.813 274.645 204.373 13.739.555 25.387-2.347 34.688-8.363 30.123-19.541 38.613-75.435 23.253-153.173-1.707-10.667 5.12-21.035 15.36-23.04a19.498 19.498 0 0 1 23.04 15.36c19.2 97.28 5.12 164.096-40.107 193.621-16.213 10.581-35.84 15.573-57.6 14.763-87.467-3.285-210.773-98.133-323.84-244.053-49.237-1.493-95.573-5.547-137.899-12.245-27.563 123.605-16.64 212.352 25.344 233.685 5.888 3.115 12.16 4.693 19.499 5.291 29.739 2.304 70.827-16.853 115.627-54.187 8.277-6.827 20.736-5.973 27.563 2.56 6.955 8.32 5.717 20.48-2.56 27.52-53.76 44.544-103.339 66.304-143.872 63.317-12.203-1.067-23.723-4.181-34.261-9.387-50.773-25.899-71.253-99.285-58.453-206.421 2.987-22.187 6.827-45.312 12.373-69.12C93.44 601.43 4.266 545.366.426 474.795c-2.56-49.92 36.907-97.451 114.347-137.472 9.557-4.907 21.419-1.28 26.453 8.533 4.864 9.557 1.28 21.333-8.533 26.283-61.867 31.829-95.147 67.755-93.141 100.608 2.133 46.08 75.605 93.44 203.093 118.613 11.52-42.411 26.453-86.699 44.8-131.84-43.435-80.555-74.923-159.872-91.179-230.4-23.893-105.173-11.093-180.053 36.693-211.115 15.36-9.984 33.28-14.933 53.205-14.933 39.893 0 88.192 19.627 142.805 58.539 8.96 6.4 10.923 18.56 4.693 27.307-6.272 8.789-18.475 10.923-27.307 4.523-65.877-47.061-121.344-62.805-151.979-42.795-32.427 21.12-39.509 82.901-19.627 169.643 13.653 59.136 38.699 125.013 72.875 192.853a1632.17 1632.17 0 0 1 26.88-56.021c60.8-119.296 135.253-223.019 209.493-292.053 59.136-55.04 114.091-83.755 159.36-83.755 14.933 0 29.013 3.2 41.643 9.515 48.853 24.96 69.973 94.293 59.648 195.2-9.557 94.421-45.227 209.493-100.437 324.267-4.693 9.685-16.384 13.781-26.027 9.216-9.813-4.693-14.08-16.427-9.387-26.112C783.57 254.38 791.677 58.626 727.25 25.772c-67.84-34.688-231.424 100.48-357.973 349.013-14.507 27.947-27.179 55.467-38.4 82.347 14.507 25.941 29.867 52.053 46.72 78.08a1409.774 1409.774 0 0 0 52.224 74.453h16.811c23.04 0 48.043-.427 73.984-2.048C799.229 592.982 988.883 498.39 985 422.7c-1.707-32.64-39.424-65.621-103.467-90.453-9.984-4.096-15.019-15.36-11.093-25.429a19.435 19.435 0 0 1 18.176-12.459c2.475 0 4.864.427 7.125 1.28 81.28 31.573 125.867 74.923 128.427 125.013 2.987 56.747-49.92 111.36-149.333 153.6v.427zM344.747 556.8c-11.52-17.707-22.187-35.285-32.597-53.077-12.459 32.768-22.699 64.427-30.848 94.507 30.421 4.693 63.36 8.107 98.56 10.24a1160.919 1160.919 0 0 1-34.987-51.627v.427zm167.466-50.133c-32.401 0-58.667-26.266-58.667-58.667s26.266-58.667 58.667-58.667S570.88 415.599 570.88 448s-26.266 58.667-58.667 58.667z"/><glyph unicode="" glyph-name="aurelia" d="M670.549 762.197l-94.976-63.403-97.92 146.731 95.061 63.403zm77.27-440.789L910.208 78.08 716.8-50.987 526.08 234.794l193.408 129.067zm-243.627-162.56l35.755-53.589-147.2-98.261-64.128 96 147.243 98.304zM828.288 436.48L869.589 464l64.043-96-95.019-63.445-35.755 53.589 53.76 35.84zm-25.429-78.336l-28.331 42.453 53.76 35.84 28.331-42.411zm-641.067 64.555l-32.128-21.461-97.92 146.731 147.2 98.219 68.65-102.827 29.269-43.904zm329.429 283.264l29.312-43.904-193.451-129.067L136.959 817.92l193.365 129.067zm138.07 28.672l-53.76-35.84-97.92 146.688 95.061 63.445 97.92-146.731zM389.12 82.048l-28.331 42.453 115.072 76.8 28.331-42.453zm413.739 276.096l-28.331 42.453 53.76 35.84 28.331-42.411zm-641.067 64.555l-29.269 43.861 115.072 76.8 29.269-43.904zm413.739 276.096l-29.269 43.861 53.76 35.84 29.269-43.861zm172.288-377.387L554.411 192.341l-28.331 42.453 193.408 129.067zM491.221 705.963l29.312-43.904-193.451-129.067-29.269 43.861zm-384.256 35.072l36.48-54.741-54.699-36.48-36.523 54.699zM304.085 85.12l36.523-54.741-54.699-36.48-36.523 54.699zM160.171 29.995L0 272l856.021 572.544L1024 606.421z"/><glyph unicode="" glyph-name="edge" d="M988.8 361.6S1056 960 515.2 960c0 0-387.2 25.6-483.2-448 0 0 172.8 233.6 451.2 256 0 0 227.2 12.8 227.2-224H332.8s28.8 128 76.8 169.6c0 0-259.2-80-259.2-384 0 0 12.8-393.6 451.2-393.6 0 0 211.2 12.8 300.8 73.6V224s-131.2-73.6-268.8-73.6-291.2 44.8-291.2 214.4h646.4z"/><glyph unicode="" glyph-name="facebook" d="M736 950.4V787.2H627.2s-80-3.2-80-67.2V585.6h182.4L704 403.2H547.2V-64H348.8v467.2H192v182.4h156.8V736s0 198.4 201.6 220.8c3.2 0 121.6 9.6 185.6-6.4z"/><glyph unicode="" glyph-name="fire" d="M316.8-64s-384 179.2-201.6 502.4c0 0 86.4 128 73.6 224 0 0 57.6-48 54.4-160 0 0 211.2 201.6 192 457.6 0 0 204.8-67.2 288-361.6 0 0 67.2 41.6 9.6 169.6 0 0 553.6-473.6-64-832 0 0 179.2 316.8-150.4 598.4 0 0 32-144-73.6-265.6 0 0 16 96-41.6 137.6 0 0-9.6-128-86.4-201.6s-25.6-243.2 0-268.8z"/><glyph unicode="" glyph-name="folder" d="M0 32h1024v704H576L448 864H0z"/><glyph unicode="" glyph-name="google-assistant" d="M956.8 515.2c-35.2 0-67.2 28.8-67.2 67.2s28.8 67.2 67.2 67.2 67.2-28.8 67.2-67.2-28.8-67.2-67.2-67.2zm-179.2-208c-67.2 0-124.8 54.4-124.8 121.6s54.4 121.6 124.8 121.6S902.4 496 902.4 428.8s-57.6-121.6-124.8-121.6zm3.2-48c80 0 147.2-64 147.2-147.2S864-32 780.8-32 633.6 32 633.6 115.2s67.2 144 147.2 144zm-467.2 48C140.8 307.2 0 444.8 0 617.6S140.8 928 313.6 928s313.6-137.6 313.6-310.4-140.8-310.4-313.6-310.4z"/><glyph unicode="" glyph-name="google-plus" d="M1024 454.4H908.8v-112h-80v112H713.6v80h115.2v112h80v-112H1024v-80zm-534.4-256C220.8 80 89.6 265.6 41.6 323.2s-92.8 316.8 128 432S544 716.8 544 716.8L451.2 624c-99.2 92.8-217.6 25.6-217.6 25.6-108.8-70.4-96-156.8-96-192S176 288 329.6 288s172.8 128 172.8 128h-176v124.8l307.2-3.2c32-259.2-144-339.2-144-339.2z"/><glyph unicode="" glyph-name="google" d="M508.8 544V342.4H784s-25.6-204.8-268.8-204.8-304 214.4-304 272-16 198.4 150.4 307.2c0 0 185.6 105.6 339.2-38.4l144 147.2s-243.2 249.6-585.6 64S-16 291.2 60.8 195.2 342.4-192 758.4-6.4c0 0 275.2 128 227.2 540.8L508.8 544z"/><glyph unicode="" glyph-name="hangout" d="M960 521.6v-12.8-6.4C944 144 512-64 512-64V96C265.6 96 64 288 64 528s201.6 432 448 432c243.2 0 441.6-185.6 448-419.2v-9.6-3.2-6.4zM448 640H256V448h128v-96s64 0 64 96v192zm320 0H576V448h128v-96s64 0 64 96v192z"/><glyph unicode="" glyph-name="hard-disk" d="M64 832h896l64-512H0l64 512zM854.4 64H172.8S0 73.6 0 256h1024S1011.2 64 854.4 64zM896 192h-64v-64h64v64z"/><glyph unicode="" glyph-name="home" d="M512 736L0 342.4v160L512 896l512-393.6v-160L512 736zm384-384V-32H640v256H384V-32H128v384l384 288 384-288z"/><glyph unicode="" glyph-name="automatic" d="M512 671.232v-.085 52.779c-20.693-1.408-32.171-12.501-42.24-30.293L250.453 246.614h105.131l-32.128 40.96 27.904 58.155.213-.299L512 670.977v.256zm-62.891-271.147h125.696L512 530.09zm-97.834-55.168H352l-.427.555zm223.573 55.168V400zm342.315 343.766L565.76 946.859c-29.568 17.067-77.952 17.067-107.52 0L106.837 743.851c-29.568-16.981-53.76-58.88-53.76-93.099V245.12c0-34.219 24.192-76.032 53.76-93.013L458.24-50.858c29.568-17.067 77.909-17.067 107.52 0l351.36 203.435c29.525 16.64 53.76 58.88 53.76 92.757v405.504c0 34.133-24.192 75.947-53.76 93.013zM658.347 229.717l-29.312 59.051H394.368l-28.715-59.051H225.578l230.229 470.741c13.013 25.899 33.152 38.4 56.192 38.4s44.117-13.995 56.149-37.973l230.229-471.168H658.345zM512 671.147V565.59l107.435-220.715H352l32.341-40.107h254.805l28.757-57.6H773.46l-72.875 42.24v-1.707L511.998 671.146z"/><glyph unicode="" glyph-name="autotask" d="M765.013 463.957l118.699-298.155H700.331l-77.867 202.069-421.76-284.459L42.667 422.399H77.44l187.307-145.835L589.44 453.545l-46.293 120.32-49.835-105.856-210.688-115.883 151.595 398.592h216.619l86.272-216.747 286.891 156.373v269.653H.001v-1024h1024v702.635z"/><glyph unicode="" glyph-name="azurepipelines" d="M76.8 192H0V-64h256v76.8H76.8zm904.533 768H600.052c-29.476 0-55.461-14.945-70.792-37.671l-.193-.303L384 704.426H42.667C19.103 704.426 0 685.323 0 661.759V427.092l149.333-154.027 51.2 55.04 64-64-51.2-52.053 63.147-63.147 52.053 52.053 64-64.427-51.2-51.2L490.666-64.002h234.667c23.564 0 42.667 19.103 42.667 42.667v341.333l218.027 145.067c23.03 15.523 37.976 41.509 37.976 70.986 0 .244-.001.487-.003.731v-.037 380.587c0 23.564-19.103 42.667-42.667 42.667zM768 576c-70.692 0-128 57.308-128 128s57.308 128 128 128c70.692 0 128-57.308 128-128s-57.308-128-128-128z"/><glyph unicode="" glyph-name="basecamp" d="M512 874.667c-275.627 0-491.52-350.72-512-646.827C86.528 77.653 295.04 21.333 512 21.333s425.6 56.32 512 206.507c-20.48 296.192-236.373 646.827-512 646.827zM518.4 89.6c-407.04 0-446.123 172.117-446.123 172.117l7.68 41.643S192 545.28 262.4 545.28s99.84-99.84 157.44-99.84 182.357 221.44 227.157 221.44c44.672 0 120.32-83.2 182.187-160 61.867-76.885 122.795-208.512 122.795-208.512l-.341-1.451 6.4-37.803S925.355 89.599 518.315 89.599z"/><glyph unicode="" glyph-name="behance" d="M296.021 767.872c29.952 0 57.173-2.56 81.92-8.021 24.619-5.547 45.653-14.08 63.36-26.027 17.493-11.947 31.275-27.733 40.96-47.787 9.6-20.053 14.507-44.8 14.507-73.813 0-31.573-7.253-58.027-21.632-79.36-14.421-21.333-35.712-38.4-64.085-52.053 38.656-11.093 67.243-30.72 86.272-58.453 19.115-28.16 28.373-61.867 28.373-100.693 0-32-5.547-59.307-17.493-82.347-11.947-23.467-28.587-42.667-49.493-57.6-20.48-14.848-44.8-25.6-71.253-32.725a312.134 312.134 0 0 0-81.493-10.837H.001v629.419h296.021v.299zM722.773 248.96c18.773-18.261 45.781-27.435 80.811-27.435 25.173 0 46.933 6.315 65.28 19.072 18.091 12.373 29.013 26.027 33.28 40.107h110.421c-17.195-54.613-44.715-93.867-81.067-117.333-36.267-23.893-80.384-35.413-131.413-35.413-35.712 0-67.584 5.547-96.939 17.067-28.715 11.52-52.907 27.733-73.387 48.64-19.797 20.907-35.115 46.08-45.952 75.52-10.795 29.44-15.915 61.867-15.915 96.853 0 34.261 5.76 65.707 17.195 95.147 11.52 29.867 27.477 54.613 47.787 76.373 21.12 21.76 45.355 38.187 74.069 50.944s59.733 18.475 94.72 18.475c38.827 0 72.107-6.997 101.547-22.315 28.587-14.507 52.053-34.987 70.827-59.733 18.773-25.003 32-53.76 40.107-86.187 8.107-32 10.667-65.707 8.96-101.547H694.997c0-35.84 11.947-69.632 30.293-88.107l-3.413-1.28zm-436.906-2.133c13.525 0 26.453 1.28 38.656 3.968 12.373 2.56 23.381 7.04 32.555 12.8 8.96 5.76 16.64 13.995 22.187 24.875 5.547 10.24 8.107 24.32 8.107 40.96 0 32-9.387 55.04-27.307 69.12-18.347 13.653-42.24 20.48-72.107 20.48H138.241v-172.8h147.627v1.28zm580.565 241.066c-15.019 16.427-40.107 25.259-70.699 25.259-19.968 0-36.48-3.157-49.749-10.155-12.885-6.4-23.467-14.933-31.573-25.173s-13.525-20.48-16.725-32c-3.2-11.093-5.12-21.333-5.76-30.293h203.179c-2.987 32-14.08 55.467-29.013 72.107v-.427zm-588.245 26.24c24.491 0 44.8 5.717 60.8 17.579 15.957 11.52 23.637 30.72 23.637 57.088 0 14.677-2.987 26.667-7.68 36.096-5.547 9.387-12.8 16.64-21.333 21.845-8.96 5.291-19.2 8.96-30.72 10.965-11.52 2.261-23.893 3.157-35.84 3.157H137.814V514.09h140.373zm388.181 211.542h254.635v-62.037H666.368v62.123z"/><glyph unicode="" glyph-name="bing" d="M153.813 960L358.4 888.064V168.107l288.128 166.187-141.227 66.347-89.173 221.867L870.101 463.02V231.127L358.528-63.998 153.856 49.922v910.08z"/><glyph unicode="" glyph-name="html5" d="M873.6 41.6L496-64 118.4 41.6 32 960h928L873.6 41.6zm-668.8 736l32-342.4h400l-9.6-160-128-32-128 32-9.6 96H243.2l16-179.2L496 128l236.8 64 32 352H345.6L336 662.4h441.6l9.6 118.4H204.8z"/><glyph unicode="" glyph-name="hut" d="M1024 320H896V0H576v192H448V0H128v320H0v32l512 512 192-192v160h128V544l192-192z"/><glyph unicode="" glyph-name="instagram" d="M726.4-64H297.6C134.4-64 0 70.4 0 233.6v428.8C0 825.6 134.4 960 297.6 960h425.6c166.4 0 300.8-134.4 300.8-297.6V236.8C1024 70.4 889.6-64 726.4-64zM928 672c0 105.6-86.4 192-192 192H288c-105.6 0-192-86.4-192-192V224c0-105.6 86.4-192 192-192h448c105.6 0 192 86.4 192 192v448zm-137.6-9.6c-35.2 0-64 28.8-64 64s28.8 64 64 64 64-28.8 64-64-28.8-64-64-64zM512 182.4c-147.2 0-265.6 118.4-265.6 265.6S364.8 713.6 512 713.6 777.6 595.2 777.6 448 659.2 182.4 512 182.4zm0 435.2c-92.8 0-169.6-76.8-169.6-169.6S419.2 278.4 512 278.4 681.6 355.2 681.6 448 604.8 617.6 512 617.6z"/><glyph unicode="" glyph-name="landline" d="M1024 636.8c0 22.4-6.4 115.2-48 131.2-92.8 35.2-313.6 64-464 64s-374.4-28.8-464-64C6.4 752 0 659.2 0 636.8v-19.2L9.6 576c3.2-22.4 28.8-38.4 51.2-35.2L256 579.2c22.4 3.2 38.4 28.8 35.2 51.2l-9.6 54.4c19.2 3.2 35.2 6.4 54.4 6.4l-6.4-86.4S35.2 444.8 35.2 384V92.8h953.6V384c0 57.6-294.4 220.8-294.4 220.8l-6.4 86.4c19.2-3.2 35.2-3.2 54.4-6.4l-9.6-54.4c-3.2-22.4 9.6-48 35.2-51.2l198.4-38.4c22.4-3.2 44.8 9.6 51.2 35.2l9.6 44.8c-3.2 6.4-3.2 9.6-3.2 16zm-512 70.4c19.2 0 89.6-3.2 108.8-6.4l-6.4-86.4H409.6l-6.4 86.4c38.4 3.2 76.8 6.4 108.8 6.4zm0-492.8c-76.8 0-137.6 57.6-137.6 131.2S435.2 476.8 512 476.8s137.6-57.6 137.6-131.2S588.8 214.4 512 214.4z"/><glyph unicode="" glyph-name="linkedin" d="M803.2-32v384S800 470.4 694.4 470.4 576 342.4 576 342.4V-32H355.2v665.6H576v-92.8s41.6 112 195.2 112S1024 566.4 1024 352V-32H803.2zM128 720C57.6 720 0 774.4 0 838.4S57.6 960 128 960s128-54.4 128-118.4S198.4 720 128 720zM236.8-32H9.6v665.6h227.2V-32z"/><glyph unicode="" glyph-name="map" d="M768-32v768l256 192V160L768-32zM384 928l320-192V-32L384 160v768zM0 768l320 128V128L0 0v768z"/><glyph unicode="" glyph-name="message" d="M934.4 144H208L0-64v937.6c0 48 38.4 86.4 89.6 86.4h844.8c51.2 0 89.6-38.4 89.6-89.6V233.6c0-51.2-38.4-89.6-89.6-89.6zM371.2 604.8H252.8V486.4h118.4v118.4zm208 0H460.8V486.4h118.4v118.4zm208 0H668.8V486.4h118.4v118.4z"/><glyph unicode="" glyph-name="music" d="M800 64c-124.8 0-224 70.4-224 160s99.2 160 224 160c64 0 118.4-19.2 160-48v368L448 585.6V96c0-89.6-99.2-160-224-160S0 6.4 0 96s99.2 160 224 160c64 0 118.4-19.2 160-48v624l576 128h64V224c0-89.6-99.2-160-224-160z"/><glyph unicode="" glyph-name="npm" d="M0-64V960h1024V-64H0zm832 832H192V128h320v512h192V128h128v640z"/><glyph unicode="" glyph-name="pacman" d="M960 115.2C867.2 6.4 729.6-64 572.8-64 291.2-64 64 166.4 64 448s227.2 512 508.8 512C726.4 960 864 889.6 960 780.8L636.8 448 960 115.2zM700.8 694.4c41.6 0 73.6 32 73.6 73.6s-32 73.6-73.6 73.6c-41.6 0-73.6-32-73.6-73.6s32-73.6 73.6-73.6z"/><glyph unicode="" glyph-name="bitbucket" d="M33.195 908.331C15.104 908.587.256 894.08 0 875.99c0-1.92.085-3.84.427-5.717L139.648 25.004c3.584-21.291 21.973-36.992 43.605-37.205H851.2c16.299-.171 30.208 11.563 32.853 27.563l139.52 854.613c2.901 17.835-9.216 34.688-27.093 37.589-1.92.341-3.797.469-5.675.427l-957.611.341zM619.52 297.472H406.272l-57.685 301.397H671.19l-51.669-301.397z"/><glyph unicode="" glyph-name="bitly" d="M557.013 52.907c-57.387-.939-99.2 17.493-101.803 67.627-1.067 18.773-.768 38.827.085 50.859C461.14 244.609 512.17 297.26 563.242 307.5c63.232 12.544 104.747-16.213 104.747-98.56 0-55.595-15.36-154.368-110.507-156.032h-.683zM508.715 960C226.987 960 0 733.995 0 438.443 0 285.099 81.92 137.131 197.248 48.171c22.187-17.067 48.555-15.659 63.872-.853 12.672 12.16 11.605 41.984-12.16 62.933C156.8 190.72 93.141 313.344 93.141 436.011c0 219.733 195.413 404.907 415.573 404.907 267.947 0 411.136-217.685 411.136-402.347 0-113.067-55.04-249.173-154.709-335.957.64 0 21.035 40.192 21.035 118.784 0 133.547-84.309 206.336-182.613 206.336-70.955 0-113.792-25.515-142.507-49.152 0 54.272 1.92 155.819 1.92 155.819 0 67.072-23.04 120.747-105.387 122.027-47.36.64-82.432-21.035-104.107-70.272-7.68-18.603-5.12-39.083 10.837-48 12.8-7.68 34.56-1.963 44.629 12.117 7.04 8.96 10.837 10.837 17.237 10.24 10.24-1.28 10.965-17.28 10.965-28.16.597-8.235 8.235-123.861 3.755-420.907-.427-81.493 64.128-175.445 218.027-175.445 66.56 0 117.589 18.56 191.701 60.672C863.7 60.588 1023.998 202.326 1023.998 442.54c-2.005 302.208-244.693 517.461-514.859 517.461z"/><glyph unicode="" glyph-name="blender" d="M533.76 396.203c1.963 34.133 18.688 64.256 43.947 85.589 25.114 20.975 57.742 33.71 93.344 33.71.364 0 .727-.001 1.09-.004h-.056c36.267 0 69.589-12.8 94.336-33.707 25.259-21.333 41.941-51.456 43.861-85.547 1.92-35.115-12.16-67.669-36.907-91.861-25.909-24.777-61.108-40.028-99.868-40.028-.5 0-.999.003-1.498.008l.076-.001c-.428-.005-.933-.007-1.439-.007-38.783 0-74.003 15.25-99.992 40.081l.055-.052c-24.747 24.192-38.827 56.747-36.907 91.819zM313.6 327.211c.256-13.397 4.523-39.339 10.923-59.648 14.706-45.68 37.989-84.991 68.175-117.861l-.207.229c32.635-35.789 72.215-64.627 116.683-84.487l2.229-.889c45.317-20.492 98.254-32.433 153.98-32.433.766 0 1.532.002 2.298.007l-.118-.001.754-.001c56.219 0 109.604 12.13 157.683 33.914l-2.404-.975c46.654 20.938 86.194 49.889 118.57 85.474l.256.286c29.922 32.735 53.184 72.108 67.296 115.603l.629 2.242c8.666 26.625 13.663 57.262 13.663 89.066 0 14.849-1.089 29.444-3.192 43.709l.196-1.617c-6.494 44.613-21.78 84.658-44.084 119.81l.735-1.24c-21.491 34.097-47.756 62.956-78.263 86.604l-.756.564h.085L577.963 851.839c-20.992 16.128-56.277 16.043-79.36-.085-23.339-16.299-25.984-43.307-5.248-60.373l-.043-.043 133.376-108.501-407.168-.427c-33.621-.043-65.92-22.101-72.32-50.005-6.571-28.373 16.213-51.925 51.2-52.053v-.085l206.08.427L35.243 297.302c-34.688-26.539-45.867-70.741-24.021-98.688 22.187-28.459 69.333-28.501 104.405-.171l200.704 164.224s-2.944-22.187-2.688-35.456zm515.84-74.283c-41.387-42.155-99.243-66.048-161.92-66.133-62.72-.171-120.619 23.552-162.005 65.621-19.025 19.098-34.067 42.178-43.764 67.88l-.439 1.325c-6.817 18.383-10.761 39.619-10.761 61.776 0 32.43 8.45 62.887 23.267 89.288l-.475-.92c12.931 22.977 29.367 42.379 48.826 58.206l.368.29c40.192 32.768 91.349 50.475 144.896 50.56 53.589.085 104.747-17.493 144.981-50.133 20.48-16.683 37.12-36.437 49.152-58.325 11.888-21.009 19.852-45.741 22.221-72.085l.051-.704c.426-4.657.67-10.072.67-15.544 0-22.148-3.984-43.366-11.274-62.975l.407 1.25c-10.141-27.077-25.167-50.21-44.174-69.39l.014.014z"/><glyph unicode="" glyph-name="bootstrap" d="M853.333 960H170.666C76.501 959.744.255 883.499-.001 789.333V106.666c0-93.867 76.8-170.667 170.667-170.667h682.667c93.867 0 170.667 76.8 170.667 170.667v682.667C1024 883.2 947.2 960 853.333 960zm-93.312-719.147c-8.533-20.565-22.059-38.699-39.381-52.651-17.92-14.507-40.619-26.453-68.565-34.987-27.904-8.661-61.099-13.013-99.541-13.013H278.102v597.333h290.219c53.675 0 96.683-12.075 128.853-36.693 32.427-24.747 48.555-61.611 48.555-111.36 0-30.08-7.339-55.893-22.101-77.227-14.677-21.205-35.84-37.803-63.147-49.323v-1.963c36.437-7.68 64.64-24.96 83.2-51.84s28.075-60.843 28.075-101.845c0-22.955-4.437-44.8-12.8-65.195l1.067-1.152zm-118.442 147.2c-17.493 16-42.069 23.808-73.813 23.808H383.361V225.493h184.917c31.573 0 56.32 8.192 73.813 24.747 17.493 16.427 26.453 39.851 26.453 69.973-.299 29.44-8.96 52.224-26.453 67.84h-.725zm-25.6 120.448c16.896 14.336 25.173 34.859 25.173 61.611 0 30.037-7.467 51.371-22.613 63.573-15.019 12.16-36.693 18.475-65.195 18.475H382.677V487.339h170.667c24.875 0 46.08 7.253 62.464 21.163z"/><glyph unicode="" glyph-name="bower" d="M1004.44 477.641c-52.655 50.635-316.039 82.225-399.123 91.401 4.023 9.492 7.458 19.347 10.306 29.472 11.346 4.972 23.551 9.583 36.208 13.425 1.537-4.565 8.815-21.969 12.928-30.241 167.117-4.611 175.706 124.174 182.486 159.477 6.645 34.49 6.328 67.851 63.646 128.785-85.389 24.907-208.206-38.559-249.341-133.034-15.46 5.786-30.965 10.08-46.289 12.702-10.984 44.3-68.166 167.704-218.196 167.704-97.187 0-195.187-40.141-268.869-110.115-39.689-37.699-70.878-82.451-92.712-133.079C11.932 619.488-.001 559.322-.001 495.269c0-223.034 152.245-418.447 238.266-418.447 37.564 0 69.885 28.116 77.478 53.34 6.374-17.313 25.856-71.06 32.275-84.711 9.493-20.251 53.295-37.745 72.461-16.725 24.636-13.697 69.885-21.924 94.52 14.601 47.464-10.035 89.457 18.262 90.362 52.075 23.279 1.22 34.716 33.947 29.653 59.984-3.752 19.166-43.802 88.011-59.443 111.743 30.92-25.178 109.302-32.275 118.795 0 49.859-39.146 127.609-18.624 133.757 13.245 60.618-15.731 130.095 18.85 118.704 60.708 97.368 6.735 84.918 110.3 57.612 136.559zM750.895 649.323c-25.63 10.08-58.155 16.454-80.937 16.454-32.32 0-52.029-18.307-82.451-18.307-6.374 0-21.607-.045-33.857 4.339 8.047-8.452 18.036-13.018 37.428-13.018 11.572 0 34.535 5.922 53.114 11.482.271-3.933.678-7.775 1.22-11.663-34.807-8.317-71.33-30.467-81.908-36.207-23.505 51.938-3.3 101.029 15.369 123.676 83.716-.18 151.363-57.679 172.021-76.755zm36.23 3.887l-12.793 11.979c-13.154 12.34-26.85 23.461-40.954 33.36 20.975 41.587 47.328 87.017 80.597 115.133-36.614-14.781-72.823-58.9-94.204-106.047-10.894 6.916-21.969 13.109-33.134 18.488 29.834 63.691 99.131 116.85 175.525 121.009-51.17-46.424-31.959-139-75.083-193.877l.045-.045zm-105.12-43.372c-5.651 12.25-11.324 32.524-10.645 44.457 9.492.226 27.755-3.345 30.647-4.023-1.131-5.605-1.718-17.9-1.718-19.482 1.808 3.119 6.825 13.832 8.86 18.081 18.261-3.48 42.265-9.312 56.323-15.866-16.544-10.714-44.593-22.353-83.468-23.167zm-301.744 83.268c-20.686 7.42-20.686 26.067 0 33.487s46.685-1.905 46.685-16.742c0-14.838-25.998-24.162-46.685-16.743zm68.969-6.921c0 40.961-44.648 66.701-80.173 46.221s-35.525-71.96 0-92.441c35.525-20.481 80.173 5.259 80.173 46.22zm118.75 67.196c-66.766-67.669-40.412-153.284-16.093-191.933-34.58-57.545-102.566-96.87-181.536-114.771 88.643 0 140.809 22.828 171.139 45.158 19.347 14.284 29.834 28.342 35.213 36.162 131.452-8.498 339.568-50.854 359.864-64.55 8.137-5.515 16.544-17.674 17.81-29.337-98.769 13.833-276.826 28.388-323.43 30.829 33.089-4.702 274.475-50.402 316.333-61.115-12.748-20.749-41.769-35.439-85.48-25.224 23.642-32.185-22.24-70.788-86.158-49.543 14.059-31.597-42.807-60.03-107.494-27.122.814-31.597-80.236-35.258-112.24-.316.633-4.159 4.43-12.115 6.057-15.641C551.659 193.673 476.034 136.4 398.601 136.4c-189.583 0-354.756 154.007-354.756 358.869 0 216.568 160.066 378.216 353.219 378.216 110.658 0 160.653-87.107 170.914-120.105z"/><glyph unicode="" glyph-name="cakephp" d="M0 368V208.213C0 120.021 229.12 48.512 512 48.512v159.701c-282.88 0-512 71.68-512 159.701v.085zm912.384-99.541L512 368V208.213l400.384-99.541C982.187 135.979 1024 170.539 1024 208.213V368c0-37.632-41.813-72.192-111.616-99.541zM512 527.659V368C229.248 368 0 439.552 0 527.744v160.043c0 88.064 229.12 159.701 512 159.701 282.667 0 512-71.68 512-159.744v-160c0-37.675-41.813-72.107-111.616-99.584L512 527.659z"/><glyph unicode="" glyph-name="pencil" d="M640 128L0-64l182.4 630.4 384 393.6H768L374.4 576 256 502.4 160 224s96-28.8 128-128l278.4 96 64 118.4L1024 704V512L640 128zM384 320l64 128 448 448 64-64-448-448-128-64z"/><glyph unicode="" glyph-name="phone" d="M265.6 950.4L144 960S-60.8 864 16 633.6s140.8-448 604.8-656c0 0 294.4-144 403.2 99.2v118.4l-246.4 99.2s-32 22.4-64-9.6-92.8-89.6-92.8-89.6-214.4 112-358.4 345.6l99.2 108.8s12.8 28.8 0 54.4c-9.6 28.8-96 246.4-96 246.4z"/><glyph unicode="" glyph-name="picasa" d="M995.2 281.6h-208V880c144-92.8 236.8-249.6 236.8-432 0-57.6-9.6-115.2-28.8-166.4zm-284.8 304L345.6 931.2C396.8 950.4 454.4 960 512 960c73.6 0 140.8-16 204.8-41.6l-6.4-332.8zM460.8 732.8l-448-400C3.2 368 0 409.6 0 448c0 198.4 112 368 275.2 454.4l185.6-169.6zM243.2 441.6V12.8c-92.8 57.6-166.4 144-208 246.4l208 182.4zm57.6-214.4l672 3.2C892.8 54.4 716.8-64 512-64c-76.8 0-147.2 16-214.4 44.8l3.2 246.4z"/><glyph unicode="" glyph-name="reddit" d="M963.2 320c3.2-12.8 3.2-28.8 3.2-41.6C966.4 105.6 761.6-32 512-32S57.6 105.6 57.6 278.4c0 12.8 0 28.8 3.2 41.6C25.6 339.2 0 377.6 0 419.2c0 60.8 51.2 112 115.2 112 32 0 57.6-12.8 80-32 76.8 51.2 182.4 83.2 294.4 89.6 9.6 57.6 44.8 284.8 51.2 313.6 6.4 35.2 41.6 22.4 41.6 22.4L752 886.4c16 25.6 41.6 41.6 73.6 41.6 48 0 86.4-38.4 86.4-83.2s-38.4-83.2-86.4-83.2c-41.6 0-76.8 32-83.2 70.4l-147.2 32-44.8-275.2c108.8-6.4 208-38.4 281.6-86.4 19.2 19.2 48 32 80 32 64 0 115.2-51.2 115.2-112-3.2-44.8-28.8-83.2-64-102.4zm-592 99.2c-48 0-86.4-38.4-86.4-83.2 0-48 38.4-83.2 86.4-83.2s86.4 38.4 86.4 83.2c-3.2 44.8-41.6 83.2-86.4 83.2zm281.6 0c-48 0-86.4-38.4-86.4-83.2 0-48 38.4-83.2 86.4-83.2s86.4 38.4 86.4 83.2c0 44.8-38.4 83.2-86.4 83.2zm80-259.2c-19.2 19.2-38.4 0-44.8-6.4S617.6 112 515.2 112s-172.8 44.8-172.8 44.8-25.6 22.4-44.8 0c0 0-16-16 0-38.4s112-64 220.8-64c0 0 156.8-3.2 220.8 67.2-6.4-3.2 12.8 19.2-6.4 38.4z"/><glyph unicode="" glyph-name="skype" d="M1024 220.8C1024 64 896-64 739.2-64 688-64 640-51.2 598.4-28.8c-28.8-6.4-57.6-6.4-86.4-6.4C246.4-35.2 32 182.4 32 448c0 28.8 3.2 54.4 6.4 83.2C16 572.8 0 620.8 0 675.2 0 832 128 960 284.8 960c51.2 0 99.2-12.8 140.8-38.4 28.8 6.4 57.6 9.6 86.4 9.6 265.6 0 480-217.6 480-483.2 0-28.8-3.2-57.6-6.4-83.2 25.6-41.6 38.4-92.8 38.4-144zm-563.2 432c38.4 6.4 115.2 6.4 156.8-51.2 44.8-57.6 99.2-19.2 99.2-19.2 38.4 38.4 3.2 86.4 3.2 86.4-67.2 89.6-217.6 89.6-217.6 89.6-233.6 0-233.6-172.8-233.6-172.8C256 451.2 403.2 419.2 403.2 419.2L560 377.6c41.6-6.4 57.6-35.2 57.6-35.2 22.4-67.2-57.6-96-57.6-96-86.4-25.6-147.2 12.8-172.8 54.4S336 345.6 336 345.6c-54.4 9.6-70.4-32-70.4-32-22.4-86.4 96-144 96-144 169.6-67.2 393.6-9.6 396.8 147.2 6.4 160-150.4 182.4-240 198.4C448 528 422.4 544 416 550.4c-3.2 3.2-6.4 6.4-9.6 12.8-22.4 44.8 16 83.2 54.4 89.6zm-35.2-118.4v3.2c0-3.2 3.2-6.4 0-3.2z"/><glyph unicode="" glyph-name="spanchat" d="M1011.2 160c-19.2-22.4-108.8-38.4-124.8-41.6L880 89.6c0-6.4-3.2-9.6-3.2-16 0-3.2 0-3.2-3.2-6.4 0-3.2-3.2-6.4-6.4-9.6-6.4-6.4-16-3.2-19.2-3.2-22.4 3.2-76.8 22.4-153.6-9.6L640 9.6c-22.4-16-48-28.8-73.6-35.2-12.8-3.2-28.8-6.4-44.8-6.4h-3.2-6.4-3.2c-12.8 0-25.6 3.2-38.4 6.4-28.8 6.4-54.4 19.2-80 35.2L336 44.8C259.2 80 204.8 57.6 182.4 54.4s-9.6-3.2-16 0c-12.8 3.2-12.8 16-12.8 16l-12.8 44.8c-9.6 3.2-38.4 6.4-67.2 16-16 3.2-35.2 9.6-48 16l-3.2 3.2c-3.2 3.2-6.4 3.2-6.4 6.4-28.8 25.6 0 32 0 32h3.2c9.6 3.2 25.6 6.4 44.8 12.8 99.2 38.4 150.4 131.2 166.4 172.8 19.2 44.8-16 64-28.8 67.2s-48 12.8-76.8 32c-22.4 16-22.4 28.8-12.8 38.4 3.2 3.2 6.4 6.4 12.8 9.6 22.4 16 51.2 3.2 51.2 3.2 41.6-19.2 67.2-3.2 67.2-3.2-6.4 32-3.2 163.2-3.2 163.2 0 44.8 16 86.4 38.4 121.6 3.2 3.2 3.2 6.4 6.4 9.6 0 9.6 3.2 12.8 6.4 12.8v3.2l6.4 6.4s0 3.2 3.2 3.2l6.4 6.4 3.2 3.2c3.2 0 3.2 3.2 6.4 3.2l3.2 3.2 3.2 3.2c3.2 0 3.2 3.2 6.4 3.2l3.2 3.2 6.4 6.4h3.2c3.2 3.2 6.4 3.2 9.6 6.4 44.8 32 99.2 48 160 48 150.4 0 272-105.6 275.2-236.8V688v-3.2-25.6c0-35.2 0-96-3.2-124.8v-9.6h3.2c9.6-3.2 32-9.6 64 6.4 0 0 16 6.4 35.2 3.2 6.4 0 12.8-3.2 16-6.4 6.4-3.2 12.8-6.4 16-16 6.4-9.6 3.2-22.4-16-32-25.6-16-57.6-25.6-70.4-28.8-3.2 0-3.2 0-6.4-3.2-9.6-3.2-12.8-6.4-19.2-12.8-9.6-9.6-16-19.2-12.8-38.4 3.2-9.6 6.4-16 6.4-16 9.6-19.2 19.2-38.4 28.8-54.4 25.6-38.4 64-80 115.2-108.8 32-16 60.8-22.4 70.4-25.6 25.6-9.6-3.2-32-3.2-32z"/><glyph unicode="" glyph-name="star" horiz-adv-x="951" d="M950.857 581.143c0-10.286-7.429-20-14.857-27.429L728.571 351.428l49.143-285.714c.571-4 .571-7.429.571-11.429 0-14.857-6.857-28.571-23.429-28.571-8 0-16 2.857-22.857 6.857L475.428 167.428 218.857 32.571c-7.429-4-14.857-6.857-22.857-6.857-16.571 0-24 13.714-24 28.571 0 4 .571 7.429 1.143 11.429l49.143 285.714-208 202.286C7.429 561.143 0 570.857 0 581.143c0 17.143 17.714 24 32 26.286l286.857 41.714 128.571 260c5.143 10.857 14.857 23.429 28 23.429s22.857-12.571 28-23.429l128.571-260 286.857-41.714c13.714-2.286 32-9.143 32-26.286z"/><glyph unicode="" glyph-name="trello" d="M918.4-64H105.6C48-64 0-16 0 41.6v812.8C0 912 48 960 105.6 960h809.6c60.8 0 108.8-48 108.8-105.6V44.8C1024-16 976-64 918.4-64zM448 704c0 35.2-28.8 64-64 64H256c-35.2 0-64-28.8-64-64V192c0-35.2 28.8-64 64-64h128c35.2 0 64 28.8 64 64v512zm384 0c0 35.2-28.8 64-64 64H640c-35.2 0-64-28.8-64-64V384c0-35.2 28.8-64 64-64h128c35.2 0 64 28.8 64 64v320z"/><glyph unicode="" glyph-name="trophy" d="M1020.8 889.6c-6.4 19.2-25.6 32-44.8 32H838.4V960H188.8v-38.4H48c-19.2 0-35.2-12.8-44.8-32-19.2-48 28.8-243.2 115.2-320 32-28.8 70.4-48 112-54.4 12.8-3.2 22.4-12.8 19.2-19.2 0-12.8-22.4-12.8-12.8-38.4s67.2-12.8 76.8 28.8c28.8-35.2 67.2-60.8 112-80 57.6-22.4 19.2-278.4 19.2-304 0 0-92.8 0-112-25.6-9.6-16-9.6-32-9.6-32S262.4 25.6 262.4 0v-32h499.2V0c0 25.6-60.8 44.8-60.8 44.8s3.2 19.2-9.6 32c-16 25.6-112 25.6-112 25.6 0 25.6-41.6 278.4 19.2 304 44.8 19.2 83.2 48 112 80 9.6-41.6 64-54.4 76.8-28.8 9.6 22.4-12.8 25.6-12.8 38.4 0 6.4 9.6 16 19.2 19.2 41.6 6.4 80 25.6 112 54.4 86.4 76.8 134.4 272 115.2 320zM48 876.8h140.8c3.2-83.2 16-214.4 76.8-320-44.8 0-83.2 16-115.2 44.8C67.2 675.2 28.8 876.8 48 876.8zm828.8-275.2c-32-28.8-70.4-44.8-115.2-44.8 57.6 105.6 73.6 236.8 76.8 320h140.8c16 0-22.4-201.6-102.4-275.2z"/><glyph unicode="" glyph-name="twitter-font" d="M809.6 457.6H368V268.8c0-76.8 44.8-96 70.4-99.2h371.2c67.2 0 118.4-54.4 118.4-118.4S873.6-64 809.6-64h-368c-12.8 0-25.6 3.2-38.4 6.4C182.4-22.4 137.6 156.8 128 243.2v598.4c0 64 54.4 118.4 118.4 118.4s118.4-54.4 118.4-118.4V694.4H806.4c67.2 0 118.4-54.4 118.4-118.4s-51.2-118.4-115.2-118.4z"/><glyph unicode="" glyph-name="campaignmonitor" d="M1017.003 777.813c-12.373 17.621-36.693 21.973-54.315 9.643L6.955 118.187c7.125-10.027 18.645-16.64 31.872-16.64h946.347c21.461 0 38.827 17.493 38.827 38.997v615.509c-.171 7.509-2.475 15.019-6.997 21.76zm-955.734 9.643c-17.621 12.373-41.899 8.107-54.272-9.643C2.432 771.242.085 763.648 0 756.053V139.52l454.997 372.736L61.312 787.541z"/><glyph unicode="" glyph-name="dailymotion" d="M600.235 477.312c-74.837 0-132.437-60.885-132.437-132.693 0-74.795 57.6-131.627 138.88-131.627l-.683-.085c67.84 0 124.8 55.893 124.8 129.707 0 76.8-57.003 134.699-130.645 134.699zM0 960V-64h1024V960H0zM882.901 72.235H730.325v60.16c-46.933-46.08-94.848-62.72-158.507-62.72-64.939 0-120.832 21.12-167.68 63.36-61.781 54.4-93.781 126.72-93.781 210.603 0 76.8 29.867 145.664 85.76 199.424 49.92 48.896 110.72 73.813 178.56 73.813 64.853 0 114.773-21.888 150.613-67.84v233.6l157.568 32.597V72.235z"/><glyph unicode="" glyph-name="coffeescript" d="M197.973 641.28c89.6-22.613 203.947-34.133 341.76-34.133 140.8 0 252.587 11.52 341.76 34.133 95.147 22.187 140.8 52.053 140.8 80.213 0 20.053-20.48 39.68-57.6 54.613 8.533-5.547 14.933-14.933 14.933-25.173 0-28.587-43.093-52.053-129.707-71.68-80.213-17.493-182.613-29.867-307.2-29.867-120.32 0-227.413 12.373-304.64 29.013-83.2 20.48-126.72 42.667-126.72 71.68 0 11.947 5.547 22.187 22.187 34.133-52.053-20.053-80.213-37.12-80.213-62.72 2.987-29.013 49.493-58.027 144.64-80.213zm200.107 92.16c96.853 8.533 125.013 70.827 238.507 81.067 55.893 4.267 91.307-6.827 95.147-26.453 3.413-18.347-24.32-30.72-58.027-33.28-46.507-4.693-65.707 11.947-69.547 27.733-34.56-3.84-40.107-18.347-38.4-28.587 3.84-19.627 45.653-39.253 117.333-32.427 81.067 6.4 108.373 38.4 101.547 70.4-8.533 41.813-70.827 76.8-182.613 66.133-143.36-12.8-142.507-79.36-240.213-87.467-40.107-3.84-62.293 5.547-66.133 21.333-2.56 15.787 17.067 23.467 40.107 25.173 21.333 2.133 47.36-1.707 59.733-8.533 8.96 4.693 11.947 9.387 11.093 14.933-4.267 14.933-33.707 21.333-70.827 18.773-72.533-6.4-72.533-38.827-69.973-53.333 7.253-37.12 63.147-61.867 132.267-55.467zM885.333 569.6c-89.6-20.907-203.947-34.56-341.76-34.56-140.8 0-255.573 14.507-344.747 34.133-80.213 20.48-122.88 43.093-137.813 66.56 7.68-52.48 20.907-103.253 37.973-151.467-20.48-12.8-38.827-28.587-55.467-49.92C16.27 401.337-.256 358.599-.256 312.001c0-3.49.093-6.959.276-10.403l-.02.481c3.299-45.755 26.178-85.578 60.212-111.512l.375-.274c37.12-29.013 77.227-37.547 122.88-29.013 17.493 2.987 37.12 11.947 55.04 17.92-37.547 0-69.12 11.947-100.693 37.12-33.857 23.737-57.351 60.272-63.476 102.436l-.097.817c-8.533 40.107 0 77.227 22.613 110.08 5.12 6.4 10.667 11.947 16.64 17.067 12.8-31.147 26.453-61.867 41.813-90.453 34.56-52.48 69.12-98.133 103.68-147.627 14.933-29.013 24.747-57.6 31.573-86.187 22.888-31.337 55.822-54.142 93.998-63.755l1.148-.245c49.067-17.067 100.267-24.747 152.747-21.76H544c5.674-.265 12.326-.416 19.013-.416 49.531 0 97.129 8.274 141.488 23.516l-3.061-.914c37.741 11.27 69.304 33.578 91.842 63.139l.318.435h2.987c5.547 28.587 14.933 57.173 28.587 86.187 34.133 49.92 69.12 95.147 103.253 147.627 44.487 80.651 77.831 174.403 94.823 273.735l.751 5.305c-18.347-25.6-61.44-48.213-138.667-65.707z"/><glyph unicode="" glyph-name="conda-forge" d="M350.123 709.717l.213-16.896h-62.165l.256-27.947v-.213L.086 664.576v-9.003l-.085-35.755.853-1.749c9.045-19.925 28.288-38.443 53.632-56.021 25.344-17.536 56.96-33.963 91.52-48.213 69.12-28.331 149.419-47.787 213.589-46.933 31.829.427 53.973-9.728 69.12-28.672 14.549-18.176 21.76-46.592 22.357-81.92l-112.299-89.173.341-80.896h526.592l-.171 75.093-112.213 94.72c2.347 85.888 30.208 146.901 75.819 187.947 46.379 41.771 111.36 63.573 186.453 68.949l8.32.64.085 95.872zm18.133-18.005l637.696-.256-.171-62.165c-74.112-6.613-140.373-28.416-188.757-71.893-38.912-35.072-61.141-87.979-72.149-150.784l-68.992-.171.085-18.005 65.493.171c-1.152-9.643-4.821-17.067-5.248-27.307l-38.101.128-.085-18.005 42.453-.171 91.221-76.885-125.483-.085c-30.891 28.8-66.219 47.616-103.083 49.408-34.859 1.707-69.888-13.824-101.845-44.373l-127.061 1.024 95.915 75.989v4.352c.085 40.235-8.533 73.387-27.307 96.811-16.896 21.163-42.965 31.957-74.283 33.707l-.341 191.573h.341zm-61.867-16.896h43.776l.341-187.904c-59.179.853-133.333 17.237-197.589 43.648-33.579 13.824-64.299 29.781-88.149 46.336-23.467 16.171-39.723 33.109-46.677 47.744v21.931l270.336.085v-92.16h18.005v92.16h.171l-.171 18.56v9.643zm295.894-377.131c32-1.579 64.128-18.603 93.013-45.995l-.085-47.445H509.824l-.256 51.2c30.123 30.592 61.568 43.776 92.715 42.24zm-245.59-43.264l134.827-.981.256-49.195H356.949zm490.667-6.058l.085-44.117H713.13v44.075z"/><glyph unicode="" glyph-name="css3" d="M64 960h896L878.507 39.979 511.019-64 145.579 40.021 64 960zm729.173-188.288l-562.347.128 9.088-111.872 432-.085L661.034 544H377.727l10.24-109.781h263.765l-15.616-150.315-124.16-34.304-126.123 34.56-8.021 90.027h-111.36l12.373-164.48 233.173-72.661 229.248 65.28 51.925 569.344z"/><glyph unicode="" glyph-name="csswizardry" d="M1.28 259.072v653.227C1.28 938.667 22.613 960 48.939 960H972.8c26.624 0 47.787-21.333 47.787-47.787v-629.76c-28.587 17.493-62.293 26.283-100.565 26.283-53.504 0-94.08-12.8-121.771-38.229-27.733-25.515-41.387-56.661-41.387-94.933 0-41.387 14.08-72.107 42.667-91.733 16.64-12.16 47.36-23.04 91.307-32.512l44.8-10.24c26.88-5.675 45.653-12.8 58.027-19.627 11.947-7.808 18.347-18.645 18.347-32.64 0-24.149-12.373-40.747-37.12-48.981l-1.28-.683h-94.293c-12.245 4.437-21.76 10.837-29.44 19.2-7.68 9.557-12.8 23.467-15.36 43.221h-84.48c0-24.149 4.395-44.587 14.08-63.147h-71.68c8.107 16.64 12.8 35.115 12.8 56.192 0 37.547-12.8 66.133-37.803 86.016-15.957 12.672-40.107 22.827-72.021 30.592l-73.387 17.152c-28.16 5.973-46.507 11.947-55.467 17.067-13.227 7.68-19.627 19.2-19.627 33.707 0 16.213 6.827 29.013 20.053 37.973 14.08 8.96 32 13.227 55.04 13.227 20.907 0 37.547-3.84 51.627-11.093 21.077-10.923 32-29.44 33.707-54.912h85.333c-1.28 44.629-17.707 79.061-49.067 102.571-31.744 23.467-69.333 35.627-113.92 35.627-53.547 0-93.653-12.8-121.728-37.547-27.307-24.875-41.387-56.747-41.387-94.293 0-41.387 14.08-72.021 42.667-91.733 17.152-11.52 47.787-22.315 91.733-32.427l44.587-10.24c26.027-5.76 45.227-12.16 58.027-19.84 11.947-7.68 18.347-18.347 18.347-32.427 0-24.32-12.8-40.107-37.547-49.067h-95.573c-12.117 4.523-22.187 10.923-29.44 19.84-7.68 9.387-13.227 24.064-15.787 43.264h-86.059c0-23.808 4.48-44.8 13.653-63.147h-89.173c14.08 22.187 23.595 47.787 28.288 76.373H222.72c-5.973-21.76-13.312-38.315-22.4-49.067-11.093-14.08-25.6-23.04-43.52-27.52h-52.352c-19.2 4.48-35.712 15.275-49.067 32.427C35.584-9.045 26.026 26.624 26.026 73.814c0 47.787 9.813 84.053 28.16 110.08 19.2 26.155 43.947 38.827 76.373 38.827 32 0 55.467-8.96 72.107-27.477 8.96-10.24 16.64-25.6 22.187-45.909H313.6c-1.28 26.368-11.093 52.907-29.269 79.36-32.939 46.933-85.077 70.4-156.331 70.4-49.493 0-91.051-15.36-124.16-45.227l-2.133 4.693zm1019.477-155.136v66.304h-22.016c-1.493 25.472-12.8 43.605-33.408 54.357-13.355 6.997-30.592 10.581-50.901 10.581-23.04 0-40.747-4.693-54.187-13.739-13.312-9.173-20.395-22.101-20.395-38.485 0-15.147 7.083-26.453 20.352-33.92 9.387-4.48 27.733-10.837 55.893-17.237l73.387-17.493c12.8-2.56 23.893-6.4 34.133-9.813l-2.133-1.28z"/><glyph unicode="" glyph-name="twitter" d="M502.4 604.8S243.2 608 67.2 825.6c0 0-96-156.8 64-278.4 0 0-32-6.4-96 25.6 0 0-6.4-163.2 169.6-208 0 0-38.4-16-92.8-3.2 0 0 32-134.4 195.2-147.2 0 0-121.6-112-307.2-86.4 0 0 310.4-224 675.2 16 0 0 259.2 195.2 243.2 515.2 0 0 64 44.8 105.6 108.8 0 0-57.6-28.8-121.6-35.2 0 0 83.2 60.8 89.6 118.4 0 0-54.4-38.4-134.4-54.4 0 0-102.4 121.6-262.4 38.4 3.2 0-118.4-70.4-92.8-230.4z"/><glyph unicode="" glyph-name="wholensole" d="M553.6 726.4V960c249.6-19.2 451.2-220.8 470.4-470.4H790.4c-16 121.6-115.2 220.8-236.8 236.8zM624 876.8v-89.6l67.2 60.8c3.2 0-22.4 25.6-67.2 28.8zM755.2 816l-60.8-60.8c25.6-12.8 38.4-35.2 38.4-35.2l67.2 60.8c-6.4 9.6-44.8 35.2-44.8 35.2zm185.6-256s-3.2 35.2-22.4 67.2L851.2 560h89.6zm-57.6 131.2s-22.4 35.2-38.4 44.8L784 675.2s32-41.6 35.2-51.2l64 67.2zM512 166.4c73.6 0 144 28.8 195.2 76.8L880 89.6C787.2-6.4 656-67.2 512-67.2 230.4-64 0 166.4 0 448c0 272 208 492.8 473.6 512V726.4C336 707.2 230.4 588.8 230.4 448c0-153.6 128-281.6 281.6-281.6zm278.4 243.2H1024c-6.4-96-41.6-182.4-92.8-256l-176 153.6c19.2 32 32 64 35.2 102.4zm128-153.6c6.4 9.6 28.8 80 28.8 80l-96 6.4c0-9.6-6.4-22.4-6.4-22.4l73.6-64z"/><glyph unicode="" glyph-name="windows" d="M467.2 483.2v403.2L1024 960V483.2H467.2zM0 483.2v339.2l412.8 54.4V483.2H0zm412.8-48V48L0 105.6v329.6h412.8zm611.2 0V-32L467.2 41.6v393.6H1024z"/><glyph unicode="" glyph-name="youtube-play" d="M1024 438.4v-12.8-38.4c0-19.2 0-44.8-3.2-70.4-6.4-76.8-16-115.2-32-144-3.2-6.4-6.4-12.8-12.8-19.2 0-3.2-3.2-3.2-3.2-6.4-22.4-22.4-51.2-35.2-105.6-41.6-9.6 0-19.2-3.2-28.8-3.2C771.2 96 672 96 515.2 96c-156.8 3.2-256 3.2-323.2 6.4-9.6 0-19.2 0-28.8 3.2-54.4 6.4-83.2 19.2-105.6 41.6 0 3.2-3.2 3.2-3.2 6.4-3.2 6.4-9.6 12.8-12.8 19.2-16 28.8-25.6 67.2-32 140.8C0 342.4 0 368 0 387.2v121.6c0 19.2 0 44.8 3.2 70.4 6.4 76.8 16 115.2 32 144 3.2 6.4 6.4 12.8 12.8 19.2 0 3.2 3.2 3.2 3.2 6.4 22.4 22.4 51.2 35.2 108.8 41.6 9.6 0 19.2 3.2 28.8 3.2 67.2 3.2 166.4 3.2 323.2 6.4 156.8-3.2 256-3.2 323.2-6.4 9.6 0 19.2 0 28.8-3.2 54.4-6.4 83.2-19.2 105.6-41.6 0-3.2 3.2-3.2 3.2-6.4 3.2-6.4 9.6-12.8 12.8-19.2 16-28.8 25.6-67.2 32-144 3.2-25.6 3.2-51.2 3.2-70.4v-38.4-12.8-9.6c3.2-3.2 3.2-6.4 3.2-9.6zm-617.6 160V320l275.2 140.8-275.2 137.6z"/><glyph unicode="" glyph-name="amazon" d="M956.8 22.4s-35.2-32-9.6 22.4 35.2 89.6 22.4 108.8c-16 16-105.6 9.6-105.6 9.6s-44.8-6.4-22.4 9.6c0 0 112 54.4 182.4 22.4-3.2 0 22.4-80-67.2-172.8zM592 300.8c-70.4-92.8-182.4-86.4-182.4-86.4-217.6 0-192 195.2-192 195.2 0 268.8 364.8 249.6 364.8 249.6S598.4 800 496 800s-105.6-96-105.6-96l-160 22.4s32 204.8 278.4 204.8 246.4-172.8 246.4-172.8V467.2c0-83.2 54.4-140.8 54.4-140.8l-128-108.8-89.6 83.2zM582.4 496v64c-227.2 0-240-214.4-118.4-214.4S582.4 496 582.4 496zm310.4-377.6s25.6 12.8 32 0-22.4-32-22.4-32S732.8-32 518.4-32 108.8 57.6 6.4 163.2c0 0-16 28.8 9.6 9.6 28.8-19.2 272-128 502.4-128 0 0 278.4 16 374.4 73.6z"/><glyph unicode="" glyph-name="redo" d="M0 384C0 231.076 67.048 93.816 173.35 0l84.666 96C178.29 166.364 128 269.304 128 384c0 212.076 171.93 384 384 384 106.042 0 202.038-42.986 271.53-112.478L640 512h384v384L874.03 746.022C781.376 838.68 653.386 896 512 896 229.23 896 0 666.77 0 384z"/><glyph unicode="" glyph-name="undo" d="M512 896c-141.384 0-269.376-57.32-362.032-149.978L0 896V512h384L240.468 655.522C309.964 725.014 405.96 768 512 768c212.068 0 384-171.924 384-384 0-114.696-50.292-217.636-130.018-288l84.666-96C956.95 93.816 1024 231.076 1024 384c0 282.77-229.23 512-512 512z"/><glyph unicode="" glyph-name="profile" d="M896 672h-62.656v94.016L704 768l.672-96H316l2.656 96L192 766.016v-96L128 672c-35.328 0-64-28.672-64-64V160c0-35.328 28.672-64 64-64h768c35.328 0 64 28.672 64 64v448c0 35.328-28.672 64-64 64zm-160 64h64V608h-64v128zM320 518.016c38.656 0 70.016-41.184 70.016-92s-31.36-92-70.016-92-70.016 41.184-70.016 92 31.36 92 70.016 92zM224 736h64V608h-64v128zm-42.656-510.336s7.584 60.864 24.832 72.352c17.216 11.488 66.88 19.136 66.88 19.136s32.192-34.4 45.888-34.4c13.664 0 45.856 34.4 45.856 34.4s49.664-7.616 66.912-19.136c20.256-13.504 25.312-72.352 25.312-72.352h-275.68zM832 256H544v32h288v-32zm0 64H544v32h288v-32zm0 64H544v32h288v-32zm0 64H544v32h288v-32z"/><glyph unicode="" glyph-name="clubs" d="M786.832 567.228c-59.032 0-112.086-24.596-149.852-64.694-15.996-16.984-43.762-37.112-73.8-54.81 14.11 53.868 58.676 121.7 89.628 151.456 39.64 38.17 63.984 91.83 63.984 151.5.006 114.894-91.476 208.096-204.788 209.32-113.32-1.222-204.796-94.426-204.796-209.318 0-59.672 24.344-113.33 63.986-151.5 30.954-29.756 75.52-97.588 89.628-151.456-30.042 17.7-57.806 37.826-73.8 54.81-37.768 40.098-90.82 64.694-149.85 64.694-114.386 0-207.08-93.664-207.08-209.328 0-115.638 92.692-209.338 207.08-209.338 59.042 0 112.082 25.356 149.85 65.452 16.804 17.872 46.444 40.138 78.292 58.632-3.002-147.692-73.532-256.168-145.318-298.906V-64H704.01v37.74c-71.792 42.736-142.32 151.216-145.32 298.906 31.852-18.494 61.488-40.768 78.292-58.632 37.766-40.094 90.808-65.452 149.852-65.452 114.386 0 207.078 93.7 207.078 209.338-.002 115.664-92.692 209.328-207.08 209.328z"/><glyph unicode="" glyph-name="spades" d="M817.57 611.85C624.004 755.708 557.304 870.868 512.004 959.998c-.004 0-.004.002-.004.002v-.002c-45.296-89.13-112-204.292-305.566-348.148-330.036-245.286-19.376-587.668 253.758-399.224-17.796-116.93-78.53-202.172-140.208-238.882V-64h384.032v37.74c-61.682 36.708-122.41 121.954-140.212 238.884 273.136-188.446 583.8 153.94 253.766 399.226z"/><glyph unicode="" glyph-name="diamonds" d="M512 960L192 448 512-64l320 512z"/><glyph unicode="" glyph-name="heart" d="M755.188 896c-107.63 0-200.258-87.554-243.164-179-42.938 91.444-135.578 179-243.216 179C120.426 896 0 775.56 0 627.168 0 325.322 304.5 246.174 512.022-52.25 708.176 244.326 1024 334.956 1024 627.168 1024 775.56 903.57 896 755.188 896z"/><glyph unicode="" glyph-name="sim_card" d="M726 320v170h-86V320h86zm-172 86v84h-84v-84h84zm0-256v170h-84V150h84zM384 320v170h-86V320h86zm342-170v84h-86v-84h86zm-342 0v84h-86v-84h86zm468 640l2-684c0-46-40-84-86-84H256c-46 0-86 38-86 84v512l256 256h342c46 0 84-38 84-84z"/><glyph unicode="" glyph-name="trash" d="M173.517 595.814l56.371-558.49C233.011 13.721 346.982-63.898 512-64.001c165.12.102 279.091 77.722 282.163 101.325l56.422 558.49c-86.221-48.23-215.091-71.014-338.586-71.014-123.392 0-252.314 22.784-338.483 71.014zm500.685 286.874l-43.981 48.691C613.223 955.597 594.791 960 558.899 960h-93.747c-35.84 0-54.323-4.403-71.27-28.621l-43.981-48.691C218.317 859.699 122.88 798.72 122.88 753.715v-8.704C122.88 665.805 297.114 601.6 512 601.6c214.938 0 389.171 64.205 389.171 143.411v8.704c0 45.005-95.386 105.984-226.97 128.973zm-56.218-144.896L563.2 806.4H460.8l-54.682-68.608h-87.04s95.334 113.715 108.083 129.126c9.728 11.776 19.661 16.282 32.563 16.282h104.602c12.954 0 22.886-4.506 32.614-16.282 12.698-15.411 108.083-129.126 108.083-129.126h-87.04z"/><glyph unicode="" glyph-name="attachment" d="M286.048 529.888s-37.504 28.512-8.992 57.024c28.576 28.512 56.32-8.288 56.32-8.288l223.008-223.04s67.296-86.752 118.272-34.24-34.24 118.272-34.24 118.272l-312.288 312.32s-87.808 96.736-170.304 14.24c-82.496-82.528 14.496-170.528 14.496-170.528L595.136 172.8s135.296-156.288 260.576-31.008-32.512 259.04-32.512 259.04L502.112 721.92s-36 30.016-8.992 57.024 56.992-8.992 56.992-8.992L918.432 401.6s139.04-152.544-16.256-307.776C746.88-61.472 594.368 77.536 594.368 77.536L88.064 583.872s-101.248 111.776 19.488 232.576 232.576 19.488 232.576 19.488l371.52-371.552s111.68-90.688 10.4-191.936c-101.28-101.28-190.432 11.904-190.432 11.904L286.048 529.888z"/><glyph unicode="" glyph-name="thumbs-down" d="M201.143 630.857c0-20.005-16.567-36.571-36.571-36.571-20.553 0-36.571 16.567-36.571 36.571 0 20.553 16.018 36.571 36.571 36.571 20.005 0 36.571-16.018 36.571-36.571zm91.428-292.571V704c0 20.005-16.567 36.571-36.571 36.571H91.429c-20.005 0-36.571-16.567-36.571-36.571V338.286c0-20.005 16.567-36.571 36.571-36.571H256c20.005 0 36.571 16.567 36.571 36.571zm645.157 85.138c19.419-21.723 31.415-54.857 31.415-85.138-.585-59.429-50.286-109.714-109.714-109.714H701.148c4.571-18.286 10.277-23.991 16.567-36.571 14.848-29.696 32-62.866 32-109.714 0-43.995 0-146.286-128-146.286-9.728 0-18.871 3.986-25.71 10.862C571.429-29.146 564.59 6.292 558.3 40.01c-6.839 33.134-13.129 67.438-35.438 89.71-17.701 17.701-37.157 42.277-57.71 68.571-25.161 33.134-80.018 101.157-101.157 102.839-18.871 1.719-34.853 17.701-34.853 36.571V704c0 20.005 17.152 35.986 36.571 36.571 20.005.585 54.272 12.581 90.295 25.161C517.704 786.87 594.87 813.75 676.57 813.75h73.728c50.286-.585 87.991-15.433 112.567-44.581 21.723-25.71 31.415-60.562 28.014-103.424 14.299-13.714 25.161-32.585 30.866-53.723 6.29-22.857 6.29-45.714 0-66.853 17.152-22.857 25.71-49.701 24.576-78.299 0-8.009-2.304-25.161-8.558-43.447z"/><glyph unicode="" glyph-name="thumbs-up" d="M201.143 192c0 20.005-16.567 36.571-36.571 36.571-20.553 0-36.571-16.567-36.571-36.571 0-20.553 16.018-36.571 36.571-36.571 20.005 0 36.571 16.018 36.571 36.571zm91.428 292.571V118.857c0-20.005-16.567-36.571-36.571-36.571H91.429c-20.005 0-36.571 16.567-36.571 36.571v365.714c0 20.005 16.567 36.571 36.571 36.571H256c20.005 0 36.571-16.567 36.571-36.571zm676.572 0c0-30.281-11.995-62.866-31.415-85.138 6.29-18.286 8.558-35.438 8.558-43.447 1.134-28.562-7.424-55.442-24.576-78.299 6.29-21.138 6.29-43.995 0-66.853-5.705-21.138-16.567-40.009-30.866-53.723 3.438-42.862-6.29-77.714-28.014-103.424C838.254 24.54 800.549 9.692 750.263 9.106h-73.728c-81.701 0-158.866 26.843-220.562 48.018-35.986 12.581-70.29 24.576-90.295 25.161-19.419.585-36.571 16.567-36.571 36.571v366.299c0 18.871 16.018 34.853 34.853 36.571 21.138 1.719 75.995 69.705 101.157 102.839 20.553 26.295 40.009 50.871 57.71 68.571 22.272 22.272 28.562 56.576 35.438 89.71 6.29 33.719 13.129 69.157 37.705 93.147 6.839 6.839 16.018 10.862 25.71 10.862 128 0 128-102.29 128-146.286 0-46.848-16.567-80.018-32-109.714-6.29-12.581-11.995-18.286-16.567-36.571h158.281c59.429 0 109.714-50.286 109.714-109.714z"/><glyph unicode="" glyph-name="to-do" d="M826.9 497.7s-5.1 44.8-44.8 44.8c-39.6 0-50.7-27.4-50.7-41.8V420s1-14.9-11.9-14.9-11.9 11.9-11.9 11.9v137.4s.5 41.8-47.7 41.8-50.7-38.8-50.7-38.8V434.9s1.2-11.9-9-11.9-11.9 11.9-11.9 11.9v140.4s.1 41.8-47.7 41.8-50.7-41.8-50.7-41.8V446.8s2.1-9-9-9-11.9 11.9-11.9 11.9v298.9h-98.5V264.7s-.5-17.7-17.9 0-36.9 17.9-20.9 101.6c16 83.7 29.6 118.8-11.9 140.4s-53.6 9.6-62.7-29.9c-9-39.5-41.9-108.4-50.7-122.5-8.9-14.1 11.6-97 53.7-194.2S342.7 20.4 367.5-7.2C392.3-34.8 425.4-52 489.9-52h208.9S805-50.5 821 70.5c15.9 120.9 5.9 427.2 5.9 427.2zM197.3 676.9c-.7-17.9 30.5-93.2 98.5-50.8 67.9 42.4 74.6 140.4 74.6 140.4h104.4c72.7 10.9 50.4-36.7 95.5-101.6 45-64.9 128.3-23.9 128.3-23.9l-14.9 26.9s-83.4-30.4-101.5 41.8-59.7 83.6-59.7 83.6c75 1.3 67.2-86.6 155.2-86.6s95.5 83.6 95.5 83.6l-29.8 3c-14.4-49.1-50.7-53.8-50.7-53.8-68.5-17.5-80.1 65.5-137.3 83.6s-89.5-26.9-89.5-26.9h-95.5v3c-26.8 141-105 164.6-143.3 140.6S194.3 886 194.3 886c12.4-88.2 116.4-104.6 116.4-104.6-97.6-25.9-112.7-86.6-113.4-104.5zm38.8 230c71 42.3 101.5-101.6 101.5-101.6-148.3 38.6-101.5 101.6-101.5 101.6zm101.4-149.3c-25-89.3-45.9-92.9-59.7-104.6s-66.5-7.8-47.7 38.8c18.7 46.7 107.4 65.8 107.4 65.8zm131.3 95.6s-1.4 44.8-47.7 44.8-50.7-29-50.7-41.8v-44.8h98.5v41.8z"/><glyph unicode="" glyph-name="dream11" d="M583.168 479.232V716.8s4.608 48.64-53.248 48.64c-57.344 0-44.032-2.56-44.032-2.56V430.592h48.64c.512 0 48.64-6.144 48.64 48.64zm440.32 150.016v115.2c-50.176 37.888-126.976 67.072-126.976 67.072v-85.504c9.216-3.072 50.688-27.648 50.688-27.648s2.56-32.768-4.608-152.064c-7.168-119.296-138.24-219.136-138.24-219.136L555.52 135.68v9.216s33.792 23.04 175.104 152.064S866.816 576 866.816 576v306.688S760.32 949.76 512 949.76s-352.768-67.072-352.768-67.072V576c0-162.816 131.584-276.992 131.584-276.992L465.92 142.336v-7.168s-128.512 93.184-256 196.096-124.928 192-129.024 221.696c-4.096 29.696-4.608 147.456-4.608 147.456l50.688 25.6v85.504C53.76 786.432 0 741.888 0 741.888s.512-75.264 2.56-152.064c1.536-77.312 32.256-140.8 32.256-140.8 54.272-94.72 145.408-152.576 145.408-152.576l276.48-193.536S373.76 38.4 352.768 17.408s-18.432-34.816-18.432-34.816v-36.864h354.816v32.256c0 23.04-23.04 44.032-23.04 44.032L592.384 81.92 426.496 3.584l-4.608 2.56s250.88 170.496 281.088 191.488S890.88 319.488 961.024 402.944s62.464 226.304 62.464 226.304zM325.12 333.824l41.472 44.032v421.888l-41.472 46.08h223.744c158.72 0 156.672-126.976 156.672-126.976V492.544c0-175.104-159.232-159.232-159.232-159.232H325.12z"/><glyph unicode="" glyph-name="suru" d="M516.437 39.196c.114-1.252.341-2.276.569-2.844.341-.796 0 .683-.569 2.844zm310.955 754.461c-127.204 164.864-348.388 160.54-348.388 160.54C245.76 1000.163 157.468 757.93 157.468 757.93c-171.236-319.147-22.3-500.736-22.3-500.736-.683 3.186 2.958 12.288 3.3 8.875s4.437-13.426 4.437-13.426l1.138 12.288 10.012-19.001 5.575 10.012-2.276-10.012 12.288 4.437 3.3-16.725 4.437 8.875 5.575-14.45 5.575 5.575 3.3-17.863 7.851 6.713 5.575-16.725 5.575 12.288 1.138-20.025 8.988 10.012 7.851-20.025 4.437 8.875 5.575-12.288 25.714-16.725 3.3 7.851 2.276-14.45 7.851 12.288 4.437-17.863 7.851 11.15 8.988-11.15 4.437 12.288 1.138-8.875 4.437 5.575v-6.713l3.3 5.575 1.138-8.875 6.713 6.713 3.3-17.863 5.575 13.426 4.437-13.426 3.3 6.713 6.713-19.001L346 144.668l3.3-17.863 11.15 14.45-2.276-14.45 12.288 10.012 2.276-10.012 7.851 8.875-1.138-14.45 8.988 4.437 5.575-11.15 5.575 3.3v-11.15l7.851 6.713v-7.851l8.988 3.3 3.3-10.012 10.012-5.575v-4.437l10.012 1.138 3.3-10.012 6.713 2.276h3.3l8.988-13.426 2.276 5.575 4.437-8.875 1.138 8.875 11.15-7.851 1.138-12.288 2.276 10.012h1.138l1.138-15.588 16.725-4.437-1.138 10.012 11.15-5.575s1.707-5.689 2.731-9.444c-.455 3.413-.455 8.306-.455 8.306 7.964-3.755 26.852-10.012 26.852-10.012 26.51-5.575 39.253-10.809 59.164 1.138s16.498 52.452 16.725 54.613c.228 2.162 1.138 1.138 1.138 1.138 19.228-9.216 26.852-6.713 26.852-6.713l1.138 11.15 3.3-12.288 7.851 4.437v-7.851l11.15 1.138V70.827l8.988 5.575V64.114l10.012-4.437v-11.15l12.288-1.138-14.564-17.863 19.001 5.575c-16.384-19.797-29.013-29.013-29.013-29.013 19.115-3.982 40.164 13.426 40.164 13.426-8.647-12.06-31.289-24.576-31.289-24.576 15.132-1.934 41.301 21.163 41.301 21.163-4.551-24.69-31.858-30.492-26.852-30.151s26.852 5.575 26.852 5.575-23.211-18.546-19.001-17.863c4.324.796 25.714 8.875 25.714 8.875l-2.276-10.012L743.54-21.9v-8.875l7.851 2.276-3.3-16.725 22.3 15.588-10.012-25.6C910.224 98.023 924.56 322.848 924.56 322.848 926.494 112.814 801.68-64.11 801.68-64.11c14.336 8.533 143.474 221.412 146.318 404.821 2.844 183.524 6.599 287.972-120.604 452.949zM479.004 77.653c-3.072 2.048-7.851 6.713-7.851 6.713l3.3 29.013c.114 0 7.737-37.774 4.551-35.726zm23.439-13.425l-1.138 35.726 8.988-39.026-7.851 3.3zm262.485 332.344c-47.9-28.9-24.007-133.12-22.3-157.241 1.593-24.121-11.15-26.738-11.15-26.738s-10.581-2.731-16.725-5.575c-6.144-2.844-24.576-4.437-24.576-4.437-8.988-21.163-8.988-35.726-8.988-35.726-7.851-13.54-22.3-11.15-22.3-11.15-2.617 2.276-11.833 10.809-39.14 11.15-27.193.341-23.324 16.953-30.151 10.012-6.827-6.827 15.588-10.012 15.588-10.012 31.289-8.761 52.452-17.863 52.452-17.863-1.365-14.905-1.593-21.39-19.001-27.876s-22.756-3.072-23.438-44.601c-.683-41.529-29.013-37.888-29.013-37.888-26.055 0-72.59 20.025-72.59 20.025l-3.3 22.3 14.564-17.863c-77.483 246.443-5.575 335.644-5.575 335.644-55.637-171.804 17.863-268.743 17.863-268.743-69.632 167.367-5.689 304.128 77.028 374.67s89.316 133.803 89.316 133.803c155.307-108.772 109.34-212.992 61.44-241.892z"/><glyph unicode="" glyph-name="slack" d="M215.125 312.96c-.121-59.359-48.171-107.454-107.501-107.648h-.019C48.22 205.457.121 253.571 0 312.949v.011c.17 59.343 48.255 107.399 107.594 107.52h107.532V312.96zm54.23 0c.169 59.328 48.231 107.375 107.549 107.52h.014c59.332-.145 107.393-48.192 107.563-107.504V43.605C484.336-15.75 436.27-63.831 376.935-64h-.016c-59.352.169-107.417 48.25-107.563 107.591V312.96zm107.562 431.915c-59.322.169-107.369 48.201-107.563 107.501v.019C269.499 911.75 317.565 959.831 376.9 960h.016c59.352-.169 107.417-48.25 107.563-107.591V744.875H376.916zm0-54.23c59.337-.169 107.393-48.226 107.563-107.546v-.016c-.169-59.337-48.226-107.393-107.546-107.563H107.606C48.251 475.665.17 523.731.001 583.066v.016c.169 59.352 48.25 107.417 107.591 107.563h269.326zm431.872-107.562c.169 59.352 48.25 107.417 107.591 107.563h.014c59.355-.145 107.436-48.211 107.605-107.546v-.016c-.169-59.352-48.25-107.417-107.591-107.563H808.789v107.563zm-54.101 0c-.17-59.367-48.274-107.442-107.636-107.563h-.012c-59.328.169-107.375 48.231-107.52 107.549v269.326c.121 59.35 48.177 107.436 107.504 107.605h.016c59.389-.121 107.503-48.22 107.648-107.592V583.082zM647.04 151.211c59.389-.121 107.503-48.22 107.648-107.592v-.014C754.543-15.78 706.429-63.879 647.051-64h-.011c-59.343.17-107.399 48.255-107.52 107.594v107.617h107.52zm0 54.101c-59.358.17-107.423 48.28-107.52 107.639v.009c.145 59.323 48.197 107.375 107.506 107.52h269.369c59.35-.121 107.436-48.177 107.605-107.504v-.016c-.121-59.389-48.22-107.503-107.592-107.648H647.039z"/><glyph unicode="" glyph-name="microblog" d="M913.067 204.8C827.734 93.867 870.4 0 900.267-46.933 913.067-64 896-64 887.467-64 815.214-50.528 754.773-8.268 717.415 50.172L716.8 51.2c-8.533 4.267-12.8 8.533-21.333 4.267C635.734 38.4 576 25.6 512 29.867c-281.6 0-512 204.8-512 460.8S230.4 960 512 960s512-209.067 512-469.333c0-106.667-42.667-204.8-110.933-285.867zM512 362.667L648.533 268.8c2.488-1.498 5.491-2.384 8.701-2.384 9.426 0 17.067 7.641 17.067 17.067 0 .841-.061 1.668-.178 2.477l.011-.092-51.2 162.133 132.267 102.4a16.916 16.916 0 0 1 2.885 9.495c0 7.402-4.712 13.703-11.299 16.068l-.119.037h-166.4l-55.467 162.133c-3.142 3.551-7.711 5.778-12.8 5.778s-9.658-2.227-12.784-5.76l-.016-.018-55.467-162.133H273.067c-6.643-2.436-11.298-8.706-11.298-16.062 0-5.654 2.749-10.665 6.984-13.771l.048-.033 128-102.4-42.667-157.867a15.207 15.207 0 0 1-.009-.544c0-9.426 7.641-17.067 17.067-17.067 1.519 0 2.992.199 4.394.571l-.119-.027L512 362.668z"/><glyph unicode="" glyph-name="microgenetics" d="M512.341 704c110.72 0 183.893-53.888 238.208-116.309l10.581-12.501c3.499-4.309 6.997-8.533 10.325-12.8 18.517-24.277 34.517-48.896 49.92-71.424 10.24-15.189 19.84-29.568 29.397-43.008l9.685-13.653c3.157-4.48 6.315-9.003 10.24-13.227 39.595-49.963 80.597-81.067 140.075-84.949 8.32 36.053 12.843 73.429 12.843 111.829s-4.48 75.776-12.843 111.829c-59.52-3.883-100.48-34.944-140.843-84.949-7.68 10.496-15.232 21.76-23.68 33.963-16 24.149-34.517 51.541-56.32 78.72 42.923 49.877 96 92.8 167.765 109.099-85.035 157.141-252.715 263.381-445.355 263.381-192 0-360.107-106.24-447.573-263.381 71.723-16.384 124.715-59.221 167.723-109.056 3.669-3.84 7.168-7.68 10.624-12.16l10.112-12.8c20.437-26.24 38.997-53.12 55.68-78.72l23.68-35.243 10.24-14.037c3.157-4.437 7.04-8.96 10.197-13.44 44.843-61.397 90.24-103.68 160-103.68 70.4 0 115.243 42.24 160.64 103.68l16-23.68c19.243-28.16 39.765-58.88 62.08-87.68-54.315-62.763-128-116.48-238.72-116.48-110.677 0-183.637 54.4-238.037 116.48l-20.48 25.6c-18.56 24.32-34.56 49.237-49.92 71.68-10.197 15.36-19.84 29.44-29.397 42.923l-9.643 14.08c-3.157 4.437-6.357 8.96-10.24 13.397-41.643 47.317-82.645 78.677-142.123 82.517-8.32-36.224-12.8-73.6-12.8-112s4.352-75.776 12.373-111.829c59.648 3.883 100.48 34.944 140.587 84.949 7.339-10.496 15.104-21.76 23.211-33.963 16-24.149 34.389-51.541 56.021-78.72-43.051-49.877-96.128-92.8-167.68-109.099C152.147 42.24 319.742-64 512.339-64c192.64 0 360.149 106.24 447.573 263.381-71.68 16.384-124.672 59.221-167.68 109.056-3.669 3.84-7.253 7.68-10.667 12.16l-10.069 12.8c-20.48 26.24-39.083 53.12-55.68 78.72L692.179 448c-3.157 4.736-6.571 9.6-9.813 14.08-3.328 4.736-6.571 9.344-9.899 13.867-44.843 61.44-89.6 103.723-160 103.723s-115.157-42.24-160-103.723l-16 23.893c-18.603 28.544-39.083 58.88-62.123 87.851C328.659 650.112 400.339 704 512.339 704z"/><glyph unicode="" glyph-name="microsoft" d="M486.4-64H0v486.4h486.4V-64zm537.6 0H537.6v486.4H1024V-64zM486.4 473.6H0V960h486.4V473.6zm537.6 0H537.6V960H1024V473.6z"/><glyph unicode="" glyph-name="microsoft-access" d="M1024 319.189c-2.176-23.125-32.981-41.6-92.373-55.04-59.392-13.653-133.888-20.437-223.573-20.437-26.496 0-51.883.341-76.16 1.109V104.746c24.277-1.408 49.664-2.261 76.16-2.261 89.344.853 163.84 8.747 223.317 24.021s90.453 34.475 92.629 57.643v135.04zM706.901 420.181c-25.728 0-51.157.683-76.117 2.176l1.109-142.72c24.32-.683 49.621-1.28 76.16-1.28 89.6.64 164.181 8.32 223.531 23.68 59.392 14.763 90.24 33.92 92.373 56.96V496.64c-2.176-23.168-33.109-41.728-92.928-55.68-59.691-14.08-134.4-21.12-224.171-21.12v.341zm0 175.872c-25.728 0-51.157.811-76.117 2.261V456.021c24.96-1.451 50.432-2.261 76.117-2.261 89.643.811 164.48 8.661 224.171 23.68 59.776 15.104 90.752 34.261 92.928 57.429v136.747c-2.176-23.211-33.109-41.643-92.928-55.211-59.691-13.525-134.4-20.437-224.171-20.437v.085zm0 197.419c-25.728 0-51.157-1.067-76.117-3.285V632.448c24.96-1.451 50.432-2.133 76.117-2.133 89.643.64 164.48 8.491 224.171 23.381 59.819 14.848 90.752 34.133 92.928 57.643-2.176 23.125-33.109 42.453-92.928 57.856-59.691 15.36-134.4 23.04-224.171 23.723v.555zM276.224 571.264c-1.365-8.405-7.296-35.157-17.579-80l-19.2-78.251 76.8-1.067-17.92 78.293c-10.923 45.611-17.963 72.917-19.243 80.64h-2.56l-.299.384zM0 825.472V67.755L577.92-32v960L0 825.472zm353.451-564.651l-21.504 85.419-106.411 3.84-20.437-80.469-67.883 4.48 103.211 361.6 78.933 4.437 112.597-383.787-78.507 4.48z"/><glyph unicode="" glyph-name="microsoftexcel" d="M1004.928 827.648h-343.04V764.16h101.12V663.723h-101.12v-32h101.12V531.158h-101.12v-32.896h101.12v-95.104h-101.12v-38.101h101.12V269.74h-101.12v-38.101h101.12v-95.872h-101.12V65.836h343.04c5.419 1.621 9.941 8.021 13.568 19.115 3.627 11.179 5.504 20.267 5.504 27.136v703.957c0 5.461-1.877 8.747-5.504 9.899-3.627 1.109-8.149 1.707-13.568 1.707zm-44.501-691.797H795.862v95.787h164.565v-95.787zm0 133.888H795.862v95.36h164.565v-95.36zm0 133.461H795.862v94.677h164.565V403.2zm0 128H795.862v100.437h164.565V531.2zm0 133.077H795.862v99.84h164.565v-99.84zM0 843.477V49.834L604.16-54.657V950.655L0 843.476zm358.101-600.362c-2.304 6.229-13.141 32.683-32.341 79.488-19.157 46.763-30.72 73.984-34.091 81.749h-1.067l-64.811-154.24-86.613 5.845 102.741 192-94.08 192 88.32 4.651 58.368-150.229h1.152l65.92 157.056 91.264 5.76-108.672-207.787 112-211.968-98.091 5.675z"/><glyph unicode="" glyph-name="microsoft-one-note" d="M1021.739 525.483V372.182c0-5.931-2.133-11.008-6.357-15.317-4.267-4.181-9.387-6.4-15.232-6.4h-33.237v196.779h33.237c5.888 0 11.008-2.133 15.232-6.357 4.224-4.352 6.357-9.344 6.357-15.403zm-21.632-197.718c5.888 0 11.008-2.133 15.232-6.357s6.357-9.387 6.357-15.232V152.277c0-5.973-2.133-11.008-6.357-15.36-4.267-4.139-9.387-6.229-15.232-6.229H966.87v197.163h33.237zm0 439.04c5.888 0 11.392-2.176 16.384-6.4 4.992-4.352 7.509-9.429 7.509-15.36V591.701c0-6.272-2.603-11.563-7.509-15.573-4.992-3.84-10.496-5.76-16.384-5.76H945.11V97.451c0-5.76-2.261-10.24-6.699-14.123-4.48-3.2-9.557-5.12-15.531-5.12H636.843v96.64h222.165v46.123H636.843v54.315h222.165v43.563H636.843v55.68h222.165v42.88H636.843v54.357h222.165v42.923H636.843v55.68h222.165v43.52H636.843v54.4h222.165v45.44H636.843v108.075h293.845c.683 0 3.2-1.877 7.211-5.76 4.053-4.011 6.485-8.917 7.253-14.677v-34.603h54.955zM582.229 931.669V-35.67L0 64.853v763.691l582.229 103.125zm-166.101-286.72l-68.309-4.48V513.365c-.768-74.453-.768-117.461 0-128.896L211.712 632.746l-69.504-2.731V277.759l54.357-4.437v259.925L343.338 265.94l72.747-4.437v383.445z"/><glyph unicode="" glyph-name="microsoft-outlook" d="M1024 644.821V197.76c0-9.813-3.413-18.091-10.155-24.576-6.741-6.571-15.019-9.813-24.747-9.813H624.426v296.917l68.267-52.437c4.352-3.627 9.771-5.376 16.171-5.376 6.315 0 11.819 1.749 16.597 5.419L1024 644.822zm-399.573 86.23h364.672c9.003 0 16.768-2.688 23.168-8.192 6.4-5.461 9.984-12.8 10.581-21.76L708.437 450.39l-84.011 66.091v214.571zm-52.523 192.085V-27.093L0 71.723V821.59l571.904 101.547zM399.147 446.123c-.853 48.341-13.355 88.405-37.504 120.064-23.68 31.573-54.4 48.256-90.923 49.664-35.157-1.408-65.237-18.048-89.6-49.664-24.32-31.659-36.48-71.765-37.12-120.064.64-47.659 13.44-87.339 37.76-119.083 24.363-31.573 54.357-48.341 89.643-50.176 36.48 1.493 67.157 18.091 91.52 49.92 24.32 31.915 37.12 71.68 37.76 119.339h-1.536zm-133.12 105.898c18.389-.853 33.877-10.923 46.208-30.592 12.16-19.669 18.56-44.587 18.56-74.752 0-30.763-6.357-55.765-18.56-75.563-12.843-19.797-28.16-30.037-46.763-30.037s-33.92 9.643-46.72 29.44-18.56 44.8-18.56 74.837c0 30.08 5.76 55.083 18.56 74.24 12.117 19.2 27.563 29.44 46.123 30.763l1.152 1.664z"/><glyph unicode="" glyph-name="microsoft-power-point" d="M1001.984 789.333H637.525V653.397c21.973 16.64 48.299 25.088 79.147 25.088V546.304h131.157c-.64-37.077-13.44-68.352-38.443-93.568-24.917-25.259-56.235-38.229-93.355-39.083-28.8.853-55.04 9.515-78.037 26.24v-90.837h286.677v-44.587H637.908v-55.168h286.507v-44.032H637.738v-99.84h364.501c14.763 0 21.76 7.765 21.76 22.912v639.232c0 14.592-6.997 21.76-21.76 21.76h-.256zM737.28 568.064v133.291c37.12-.853 68.267-13.739 93.355-38.827 25.003-25.088 38.016-56.576 38.656-94.464H737.28zm-385.024-2.219c-2.261 8.576-5.973 15.232-11.221 20.139-5.12 4.779-12.032 8.277-20.608 10.496-9.6 2.603-19.499 3.84-29.44 3.84l-30.72-.597V471.766h1.109c11.136-.683 22.827-.683 35.2 0 12.16.64 23.68 3.84 34.517 9.6 13.355 9.6 21.333 22.4 23.936 38.997 2.56 16.683 1.664 32.683-2.731 47.403v-1.92zM0 829.483V63.787L584.021-37.12v970.24L0 829.483zm435.755-345.046c-16-37.077-39.893-60.8-71.851-71.04-31.957-10.197-66.475-14.165-103.637-11.904V255.488l-76.843 8.917v401.152l121.984 6.357c22.613 1.408 44.971-1.067 66.816-7.68 21.973-6.485 39.339-19.584 52.181-39.339 12.8-19.669 20.011-42.496 21.76-68.48 1.579-25.984-1.835-50.005-10.411-71.979z"/><glyph unicode="" glyph-name="microsoft-word" d="M1023.957 800.725V94.72c0-6.016-2.133-10.88-6.357-14.763-4.309-4.011-9.429-5.888-15.36-5.888H637.056v97.92h297.899v44.587H636.8v54.571h297.899v44.544H637.014v55.04h297.813v44.032H637.014v55.168h297.813v44.544H637.014v54.571h297.813v44.501H637.014v55.68h297.813v42.411H637.014v110.635h365.312c6.357 0 11.52-2.048 15.275-6.357 4.48-4.224 6.4-9.387 6.357-15.189zM582.4 932.651V-36.821L0 63.958v765.184l582.4 103.509zm-87.893-286.208l-72.917-4.48-46.763-289.493h-1.067c-2.304 13.696-10.88 61.653-26.24 143.659L320.256 635.35l-68.437-3.413-27.392-135.808c-16-79.104-24.917-125.141-27.264-138.069h-.64l-41.6 266.667-62.72-3.328 67.2-336.341 69.717-4.48 26.24 130.901c15.36 76.8 24.32 121.429 26.24 133.632h1.92c2.603-13.013 10.923-58.624 26.24-136.96L336 273.41l75.52-4.48L496 646.53h-1.493z"/><glyph unicode="" glyph-name="prismic" d="M334.08 795.051h-44.801c-68.689 0-124.373-55.684-124.373-124.373v-.225.012-364.928c38.373-22.958 83.62-38.766 131.98-44.354l1.566-.147c-5.344 10.367-8.617 22.577-8.958 35.516l-.002.11v293.717c-4.437 4.437-4.437 111.232 44.544 204.672zm529.493-169.088V670.678c0 68.689-55.684 124.373-124.373 124.373H378.539c-22.938-38.362-38.731-83.595-44.312-131.939l-.147-1.565c8.96 8.917 22.272 8.917 35.627 8.917h289.28c4.437 0 111.232 0 204.672-44.501zM690.048 96.384H734.763c68.689 0 124.373 55.684 124.373 124.373v.225-.012 360.533c-38.373 22.958-83.62 38.766-131.98 44.354l-1.566.147c8.96-8.917 8.96-22.229 8.96-35.584V301.14c0-4.437 0-111.232-44.501-204.715zM160.469 269.952v-44.501-.214c0-68.689 55.684-124.373 124.373-124.373h360.661c22.953 38.361 38.76 83.593 44.354 131.937l.147 1.567c-8.875-8.917-22.229-8.917-35.584-8.917H365.225c-4.437 0-111.232 0-204.672 44.501zm404.992 689.749H245.034C111.53 959.701.298 848.469.298 714.965c0 0 8.917-235.861 102.357-347.093 4.437-8.917 13.355-13.355 22.229-22.272v329.301l-.001.427c0 90.722 73.545 164.267 164.267 164.267l.45-.001h71.145c13.355 17.792 26.709 31.147 40.064 44.459 40.064 31.147 102.357 57.856 164.693 75.648zm458.368-565.162v320.427c0 133.504-111.232 244.736-244.736 244.736 0 0-235.861-8.875-347.136-102.315-9.515-5.128-17.118-12.745-22.089-21.986l-.14-.286h329.685c90.722 0 164.267-73.545 164.267-164.267v-.405.021-71.211c17.792-13.355 31.147-26.709 44.501-40.064 31.147-40.021 57.856-102.315 75.648-164.651zM458.667-63.787h320.427c133.461 0 244.736 111.232 244.736 244.736 0 0-8.917 235.861-102.357 347.093-4.437 8.917-13.355 13.355-22.229 22.272V221.013l.001-.427c0-90.722-73.545-164.267-164.267-164.267l-.45.001h-71.145c-13.355-17.792-26.709-31.147-40.064-44.459-40.064-31.147-102.357-57.856-164.693-75.648zM.299 501.333V180.949c0-133.504 111.232-244.736 244.736-244.736 0 0 235.861 8.875 347.136 102.315 8.875 4.48 13.355 13.355 22.229 22.272H289.152c-90.722 0-164.267 73.545-164.267 164.267v.405-.021 71.211c-17.792 13.355-31.147 26.709-44.501 40.064C44.8 376.747 18.091 439.041.299 501.334z"/></font>
</defs>
</svg>
